<?xml version="1.0" encoding="UTF-8" standalone="no"?>
<!-- Created with Inkscape (http://www.inkscape.org/) -->

<svg
   xmlns:dc="http://purl.org/dc/elements/1.1/"
   xmlns:cc="http://creativecommons.org/ns#"
   xmlns:rdf="http://www.w3.org/1999/02/22-rdf-syntax-ns#"
   xmlns:svg="http://www.w3.org/2000/svg"
   xmlns="http://www.w3.org/2000/svg"
   xmlns:sodipodi="http://sodipodi.sourceforge.net/DTD/sodipodi-0.dtd"
   xmlns:inkscape="http://www.inkscape.org/namespaces/inkscape"
   width="51.672211mm"
   height="38.95018mm"
   viewBox="0 0 183.09051 138.01245"
   id="svg12999"
   version="1.1"
   inkscape:version="0.91 r13725"
   sodipodi:docname="base.svg">
  <defs
     id="defs13001" />
  <sodipodi:namedview
     id="base"
     pagecolor="#ffffff"
     bordercolor="#666666"
     borderopacity="1.0"
     inkscape:pageopacity="0.0"
     inkscape:pageshadow="2"
     inkscape:zoom="5.6"
     inkscape:cx="95.361909"
     inkscape:cy="70.766111"
     inkscape:document-units="px"
     inkscape:current-layer="layer2"
     showgrid="false"
     fit-margin-top="0"
     fit-margin-left="0"
     fit-margin-right="0"
     fit-margin-bottom="0"
     inkscape:window-width="1863"
     inkscape:window-height="1056"
     inkscape:window-x="57"
     inkscape:window-y="24"
     inkscape:window-maximized="1" />
  <metadata
     id="metadata13004">
    <rdf:RDF>
      <cc:Work
         rdf:about="">
        <dc:format>image/svg+xml</dc:format>
        <dc:type
           rdf:resource="http://purl.org/dc/dcmitype/StillImage" />
        <dc:title />
      </cc:Work>
    </rdf:RDF>
  </metadata>
  <g
     inkscape:label="Layer 1"
     inkscape:groupmode="layer"
     id="layer1"
     transform="translate(-478.82985,-202.25302)"
     sodipodi:insensitive="true">
    <text
       xml:space="preserve"
       style="font-style:normal;font-variant:normal;font-weight:500;font-stretch:normal;font-size:17.5px;line-height:125%;font-family:sans-serif;-inkscape-font-specification:'sans-serif Medium';text-align:start;letter-spacing:0px;word-spacing:0px;writing-mode:lr-tb;text-anchor:start;fill:#85c5eb;fill-opacity:1;stroke:none;stroke-width:1px;stroke-linecap:butt;stroke-linejoin:miter;stroke-opacity:1"
       x="480.74274"
       y="215.71567"
       id="text8439"
       sodipodi:linespacing="125%"><tspan
         sodipodi:role="line"
         id="tspan8441"
         x="480.74274"
         y="215.71567">R</tspan></text>
    <text
       sodipodi:linespacing="125%"
       id="text8443"
       y="215.97328"
       x="650.71735"
       style="font-style:normal;font-variant:normal;font-weight:500;font-stretch:normal;font-size:17.5px;line-height:125%;font-family:sans-serif;-inkscape-font-specification:'sans-serif Medium';text-align:start;letter-spacing:0px;word-spacing:0px;writing-mode:lr-tb;text-anchor:start;fill:#85c5eb;fill-opacity:1;stroke:none;stroke-width:1px;stroke-linecap:butt;stroke-linejoin:miter;stroke-opacity:1"
       xml:space="preserve"><tspan
         y="215.97328"
         x="650.71735"
         id="tspan8445"
         sodipodi:role="line">L</tspan></text>
    <path
       style="display:inline;fill:#f1c3cf;fill-opacity:1;stroke:#000000;stroke-width:0.3548812px;stroke-linecap:butt;stroke-linejoin:miter;stroke-opacity:1"
       d="m 651.19307,236.63942 c 0,0 4.99498,11.10158 7.49247,16.65237 2.43379,5.40921 2.90178,17.56662 2.90178,17.56662 0,0 0.27816,12.70014 -2.34793,18.97353 -1.96906,4.70384 -5.87142,9.97299 -9.71803,13.32066 -4.99725,4.34905 -11.033,7.5471 -17.21173,9.93667 -5.70232,2.20532 -11.80442,3.31431 -17.79604,4.53104 -4.06986,0.82647 -8.22247,1.44635 -12.36887,1.67938 -1.59881,0.0899 -5.1673,0.0843 -5.1673,0.0843 0,0 15.95284,-10.95349 21.57425,-17.78004 8.59543,-12.43187 12.66857,-24.41923 15.8568,-38.95974 0.81249,-4.69869 1.47794,-4.94981 2.86899,-15.45572 0.67118,-5.06904 2.76677,-10.99477 5.38206,-10.89021 z"
       id="path3788"
       inkscape:connector-curvature="0"
       sodipodi:nodetypes="cscssssscccssc" />
    <path
       style="display:inline;fill:#f1c3cf;fill-opacity:1;stroke:#000000;stroke-width:0.3548812px;stroke-linecap:butt;stroke-linejoin:miter;stroke-opacity:1"
       d="m 494.40783,236.9242 c 0,0 5.6336,-0.56166 7.81815,0.74205 5.51529,5.03884 5.78141,14.2193 6.93987,21.1262 l 3.37137,14.90501 c 0,0 4.59422,15.22455 8.46703,22.09581 3.39651,6.02621 7.14058,12.0823 12.73267,16.38727 4.95361,3.81346 16.81227,8.31111 16.81227,8.31111 0,0 -25.57657,-0.77989 -36.41131,-4.16355 -7.32111,-2.28636 -17.3542,-6.62874 -22.70717,-12.12162 -5.74191,-5.89198 -8.38825,-9.78461 -9.7251,-17.82986 -1.29892,-7.81695 -0.35738,-20.53138 1.90879,-28.1165 2.28158,-7.63667 10.79343,-21.33592 10.79343,-21.33592 z"
       id="path3786"
       inkscape:connector-curvature="0"
       sodipodi:nodetypes="ccccsscssssc" />
    <path
       style="display:inline;fill:#fef700;fill-opacity:1;stroke:#000000;stroke-width:0.3548812px;stroke-linecap:butt;stroke-linejoin:miter;stroke-opacity:1"
       d="m 616.24904,277.16762 c -12.43467,2.23078 -37.03387,1.22562 -47.21479,0.88721 -6.34976,-0.21107 -37.527,0.93115 -41.25253,0.0248 -9.04729,-5.66061 -17.94213,-17.31478 -17.94213,-17.31478 0,0 -2.50194,-8.8412 -2.18697,-12.92218 0.29532,-3.82634 1.86817,-7.16535 3.57588,-10.60217 1.7569,-3.53582 3.17982,-6.2929 5.9598,-9.09654 2.35583,-2.37588 5.38677,-4.85696 8.25054,-6.58714 3.17043,-1.91546 6.46573,-3.80142 10.00527,-4.89331 2.58878,-0.7986 6.19971,-1.57676 8.90832,-1.63111 2.1888,-0.0439 5.30625,0.31885 7.33997,1.12923 8.20337,3.8175 14.88092,15.13459 16.75017,21.07887 0.29766,10.52898 0.5704,23.17528 3.51314,23.58825 2.41701,-0.0277 2.91199,-13.62064 3.61709,-22.35139 1.31764,-7.07121 3.42225,-9.73735 7.18851,-14.25785 2.30436,-2.70148 4.39197,-4.60792 7.51294,-6.30131 5.56576,-2.42231 12.62285,-2.96209 18.07207,-1.60512 14.23895,2.91538 22.00891,13.6776 25.28078,22.4711 2.50109,6.41921 3.0172,12.0892 1.18881,21.5427 -4.86498,7.03946 -10.3975,15.14617 -18.56687,16.84073 z"
       id="path3782"
       inkscape:connector-curvature="0"
       sodipodi:nodetypes="ccccsssssscccccccccc" />
    <path
       style="display:inline;fill:#00ff00;fill-opacity:1;stroke:#000000;stroke-width:0.3548812px;stroke-linecap:butt;stroke-linejoin:miter;stroke-opacity:1"
       d="m 634.84642,261.00679 c 0,0 -0.40217,1.53703 -1.0482,3.91779 -0.64604,2.38077 -1.41095,5.82402 -2.38643,9.19894 -1.60764,5.56206 -4.20371,11.54184 -5.56761,14.81767 -1.67992,4.33229 -3.8047,7.6127 -5.79703,10.45348 -1.99233,2.84079 -4.16472,5.11695 -6.56487,7.19075 -4.80029,4.14761 -9.73035,7.51705 -16.73427,12.94392 0,0 -16.08603,0.7957 -24.74619,1.05215 -4.33007,0.12822 -8.87111,0.30503 -13.34198,0.12022 -2.23544,-0.0924 -5.51583,0.0685 -7.68104,-0.25595 -2.16521,-0.32449 -3.21524,-1.13441 -5.23994,-1.79354 -1.60024,-0.52094 -3.09548,-1.40897 -4.51705,-2.07056 -1.42156,-0.66159 -2.76945,-1.40924 -4.07498,-2.27444 -1.30553,-0.86521 -2.44369,-1.37921 -3.69581,-2.51099 -1.25211,-1.13178 -3.18067,-2.75635 -4.442,-4.21768 -5.85903,-6.78807 -9.46874,-14.59649 -12.90287,-22.87978 -3.14675,-7.59011 -6.36862,-23.9099 -6.36862,-23.9099 0,0 10.22167,13.25866 17.78896,16.35346 5.2724,2.15625 17.08635,0.82409 17.08635,0.82409 8.22169,0.14039 16.77317,-0.36885 27.26354,-0.012 10.49037,0.35689 30.19125,1.11953 39.59681,1.3e-4 5.39344,-0.6419 7.86355,-1.7183 10.04384,-3.03387 1.62818,-0.98243 3.11076,-2.18699 5.02132,-4.10352 2.79562,-2.80436 8.02081,-9.83251 8.02081,-9.83251 z"
       id="path3790"
       inkscape:connector-curvature="0"
       sodipodi:nodetypes="csscsscssscsssssccssssscc" />
    <path
       style="fill:none;stroke:#000000;stroke-width:0.3548812px;stroke-linecap:butt;stroke-linejoin:miter;stroke-opacity:1"
       d="m 524.75895,212.34986 c 2.86442,-1.31616 5.90036,-2.24085 8.92825,-3.1178 2.81222,-0.81449 5.68795,-1.39741 8.55637,-1.98406 3.17863,-0.65009 6.36055,-1.32846 9.58357,-1.70062 4.32371,-0.49925 8.69083,-0.49596 13.03808,-0.70859 3.2587,-0.15939 6.51606,-0.39957 9.77855,-0.42515 3.40245,-0.0267 6.80894,0.0536 10.20372,0.28343 4.83529,0.32736 9.64982,0.93046 14.45526,1.5589 1.84827,0.24172 3.70766,0.44471 5.52701,0.85031 4.08514,0.91073 8.07628,2.21679 12.04605,3.54296 3.06254,1.02309 6.12746,2.07176 9.06997,3.40124 2.19551,0.99197 4.3913,2.03741 6.37731,3.40123 5.17981,3.55705 10.2122,7.52527 14.25191,12.33813 3.04176,3.6239 5.1308,7.96891 7.28927,12.17913 1.73751,3.38913 3.37209,6.86046 4.53498,10.48715 1.50506,4.69383 2.59522,9.55381 3.1178,14.45526 0.34056,3.19418 0.25891,6.43501 0,9.63684 -0.33175,4.10268 -0.52918,8.3374 -1.98405,12.18777 -1.38054,3.65363 -3.76311,6.89675 -6.23561,9.92027 -2.60168,3.1815 -5.53435,6.18531 -8.92824,8.5031 -3.31588,2.2645 -7.14434,3.71425 -10.91231,5.10186 -7.35595,2.70892 -14.96185,4.83671 -22.67492,6.23559 -5.38096,0.97593 -10.88061,1.14804 -16.33913,1.48218 -6.7322,0.41212 -13.48022,0.53632 -20.22417,0.6436 -8.07692,0.12848 -16.16676,0.4191 -24.23382,0 -7.53068,-0.39123 -15.0252,-1.35379 -22.5007,-2.34422 -5.25422,-0.69612 -10.63818,-0.95034 -15.69823,-2.52747 -4.4691,-1.39294 -8.78185,-3.44564 -12.67791,-6.04061 -5.06744,-3.37518 -10.34834,-7.04334 -13.60496,-12.18777 -2.39838,-3.78869 -3.21748,-8.45388 -3.82639,-12.89636 -0.80196,-5.85098 -0.72623,-11.89605 0.28344,-17.71478 1.30509,-7.52127 4.02593,-14.82036 7.36935,-21.68289 1.9097,-3.91977 4.46312,-7.52074 7.15852,-10.94803 3.43437,-4.3669 7.05627,-8.69668 11.40656,-12.15204 5.08835,-4.04158 10.95983,-7.06547 16.86447,-9.77856 z"
       id="path2995"
       inkscape:connector-curvature="0"
       sodipodi:nodetypes="sssssssssssssssssssssssssssssssssss" />
    <path
       style="display:inline;fill:none;stroke:#000000;stroke-width:0.3548812;stroke-linecap:butt;stroke-linejoin:miter;stroke-miterlimit:4;stroke-dasharray:4.2585744, 4.2585744;stroke-dashoffset:0;stroke-opacity:1"
       d="m 660.78809,271.11726 -26.34859,-10.2885 -123.71288,0 -28.35609,8.03005"
       id="path3005"
       inkscape:connector-curvature="0" />
    <path
       style="fill:none;stroke:#000000;stroke-width:0.3548812;stroke-linecap:butt;stroke-linejoin:miter;stroke-miterlimit:4;stroke-dasharray:4.2585744, 4.2585744;stroke-dashoffset:0;stroke-opacity:1"
       d="m 572.20665,261.33064 0.25094,58.46877"
       id="path3776"
       inkscape:connector-curvature="0" />
    <path
       style="fill:none;stroke:#000000;stroke-width:0.3548812;stroke-linecap:butt;stroke-linejoin:miter;stroke-miterlimit:4;stroke-dasharray:4.2585744, 4.2585744;stroke-dashoffset:0;stroke-opacity:1"
       d="M 634.94138,261.83252 622.39443,315.2825"
       id="path3778"
       inkscape:connector-curvature="0" />
    <path
       style="fill:none;stroke:#000000;stroke-width:0.3548812;stroke-linecap:butt;stroke-linejoin:miter;stroke-miterlimit:4;stroke-dasharray:4.2585744, 4.2585744;stroke-dashoffset:0;stroke-opacity:1"
       d="m 509.9738,261.58158 11.29226,55.20656"
       id="path3780"
       inkscape:connector-curvature="0" />
    <text
       xml:space="preserve"
       style="font-style:normal;font-weight:normal;font-size:14.19524765px;line-height:125%;font-family:Sans;letter-spacing:0px;word-spacing:0px;fill:#000000;fill-opacity:1;stroke:none"
       x="530.04889"
       y="297.96771"
       id="text3792"
       sodipodi:linespacing="125%"><tspan
         sodipodi:role="line"
         id="tspan3794"
         x="530.04889"
         y="297.96771"
         style="font-size:8.87203026px">CZ</tspan></text>
    <text
       xml:space="preserve"
       style="font-style:normal;font-weight:normal;font-size:14.19524765px;line-height:125%;font-family:Sans;letter-spacing:0px;word-spacing:0px;display:inline;fill:#000000;fill-opacity:1;stroke:none"
       x="597.24054"
       y="297.11841"
       id="text3792-3"
       sodipodi:linespacing="125%"><tspan
         sodipodi:role="line"
         id="tspan3794-6"
         x="597.24054"
         y="297.11841"
         style="font-size:8.87203026px">CZ</tspan></text>
    <text
       xml:space="preserve"
       style="font-style:normal;font-weight:normal;font-size:14.19524765px;line-height:125%;font-family:Sans;letter-spacing:0px;word-spacing:0px;display:inline;fill:#000000;fill-opacity:1;stroke:none"
       x="531.4032"
       y="244.62909"
       id="text3792-7"
       sodipodi:linespacing="125%"><tspan
         sodipodi:role="line"
         id="tspan3794-5"
         x="531.4032"
         y="244.62909"
         style="font-size:8.87203026px">TZa</tspan></text>
    <path
       style="display:inline;fill:#0092ff;fill-opacity:0.99085364;stroke:#000000;stroke-width:0.3548812px;stroke-linecap:butt;stroke-linejoin:miter;stroke-opacity:1"
       d="m 651.25241,236.61316 c 0,0 -7.14287,-1.08675 -9.47295,0.12547 -2.7214,1.41581 -3.63861,7.27723 -3.63861,7.27723 l -2.20995,11.48506 c -1.17917,-12.17003 -3.61133,-21.7129 -8.01581,-27.29421 -8.06915,-10.06865 -17.47343,-11.49994 -26.10026,-12.45823 -5.50514,-0.61152 -9.42418,0.79686 -14.06388,3.82236 -4.4864,2.92553 -7.31444,6.97165 -9.90448,11.65974 -0.98501,1.78292 -2.12667,6.00992 -2.12667,6.00992 0.5058,-6.17994 -1.34352,-32.26559 -3.51315,-32.37111 -3.03922,0.94371 -3.11489,30.54808 -3.86802,32.1005 -2.075,-6.45827 -9.39019,-18.55132 -17.2439,-21.01614 -11.88821,-3.731 -24.09955,3.93177 -33.59276,12.00202 -5.78576,4.91851 -9.94474,20.06043 -9.94474,20.06043 0,0 -1.24089,-8.21878 -5.36253,-10.52476 -2.43643,-1.36313 -7.52817,-0.94101 -7.52817,-0.94101 0,0 11.57104,-15.78485 21.67393,-20.88175 6.02272,-3.03846 15.45433,-6.09623 25.60935,-8.39443 10.15502,-2.2982 21.03344,-3.83682 29.94979,-3.837 15.59906,-3e-4 46.37381,3.75972 59.52864,12.97533 13.15482,9.21561 19.82417,20.20058 19.82417,20.20058 z"
       id="path3784"
       inkscape:connector-curvature="0"
       sodipodi:nodetypes="cscccssscccsscscssszc" />
    <text
       xml:space="preserve"
       style="font-style:normal;font-weight:normal;font-size:14.19524765px;line-height:125%;font-family:Sans;letter-spacing:0px;word-spacing:0px;display:inline;fill:#000000;fill-opacity:1;stroke:none"
       x="591.96002"
       y="244.57434"
       id="text3792-7-3"
       sodipodi:linespacing="125%"><tspan
         sodipodi:role="line"
         id="tspan3794-5-5"
         x="591.96002"
         y="244.57434"
         style="font-size:8.87203026px">TZa</tspan></text>
    <text
       xml:space="preserve"
       style="font-style:normal;font-weight:normal;font-size:14.19524765px;line-height:125%;font-family:Sans;letter-spacing:0px;word-spacing:0px;display:inline;fill:#000000;fill-opacity:1;stroke:none"
       x="639.15924"
       y="260.72144"
       id="text3792-7-3-6"
       sodipodi:linespacing="125%"><tspan
         sodipodi:role="line"
         id="tspan3794-5-5-2"
         x="639.15924"
         y="260.72144"
         style="font-size:8.87203026px">PZa</tspan></text>
    <text
       xml:space="preserve"
       style="font-style:normal;font-weight:normal;font-size:14.19524765px;line-height:125%;font-family:Sans;letter-spacing:0px;word-spacing:0px;display:inline;fill:#000000;fill-opacity:1;stroke:none"
       x="632.71252"
       y="294.08026"
       id="text3792-7-3-6-9"
       sodipodi:linespacing="125%"><tspan
         sodipodi:role="line"
         id="tspan3794-5-5-2-1"
         x="632.71252"
         y="294.08026"
         style="font-size:8.87203026px">PZpl</tspan></text>
    <text
       sodipodi:linespacing="125%"
       id="text8556"
       y="273.0354"
       x="595.84912"
       style="font-style:normal;font-weight:normal;font-size:14.19524765px;line-height:125%;font-family:Sans;letter-spacing:0px;word-spacing:0px;display:inline;fill:#000000;fill-opacity:1;stroke:none"
       xml:space="preserve"><tspan
         style="font-size:8.87203026px"
         y="273.0354"
         x="595.84912"
         id="tspan8558"
         sodipodi:role="line">TZp</tspan></text>
    <text
       xml:space="preserve"
       style="font-style:normal;font-weight:normal;font-size:14.19524765px;line-height:125%;font-family:Sans;letter-spacing:0px;word-spacing:0px;display:inline;fill:#000000;fill-opacity:1;stroke:none"
       x="533.09338"
       y="273.0354"
       id="text8560"
       sodipodi:linespacing="125%"><tspan
         sodipodi:role="line"
         id="tspan8562"
         x="533.09338"
         y="273.0354"
         style="font-size:8.87203026px">TZp</tspan></text>
    <text
       sodipodi:linespacing="125%"
       id="text8564"
       y="260.83777"
       x="486.07074"
       style="font-style:normal;font-weight:normal;font-size:14.19524765px;line-height:125%;font-family:Sans;letter-spacing:0px;word-spacing:0px;display:inline;fill:#000000;fill-opacity:1;stroke:none"
       xml:space="preserve"><tspan
         style="font-size:8.87203026px"
         y="260.83777"
         x="486.07074"
         id="tspan8566"
         sodipodi:role="line">PZa</tspan></text>
    <text
       xml:space="preserve"
       style="font-style:normal;font-weight:normal;font-size:14.19524765px;line-height:125%;font-family:Sans;letter-spacing:0px;word-spacing:0px;display:inline;fill:#000000;fill-opacity:1;stroke:none"
       x="490.1366"
       y="294.42535"
       id="text8568"
       sodipodi:linespacing="125%"><tspan
         sodipodi:role="line"
         id="tspan8570"
         x="490.1366"
         y="294.42535"
         style="font-size:8.87203026px">PZpl</tspan></text>
    <text
       sodipodi:linespacing="125%"
       id="text8572"
       y="336.81747"
       x="557.14648"
       style="font-style:normal;font-variant:normal;font-weight:500;font-stretch:normal;font-size:17.5px;line-height:125%;font-family:sans-serif;-inkscape-font-specification:'sans-serif Medium';text-align:start;letter-spacing:0px;word-spacing:0px;writing-mode:lr-tb;text-anchor:start;fill:#85c5eb;fill-opacity:1;stroke:none;stroke-width:1px;stroke-linecap:butt;stroke-linejoin:miter;stroke-opacity:1"
       xml:space="preserve"><tspan
         style="font-style:normal;font-variant:normal;font-weight:500;font-stretch:normal;font-size:15px;font-family:sans-serif;-inkscape-font-specification:'sans-serif Medium';fill:#85c5eb;fill-opacity:1"
         y="336.81747"
         x="557.14648"
         id="tspan8574"
         sodipodi:role="line">Base</tspan></text>
    <text
       sodipodi:linespacing="125%"
       id="text8618"
       y="213.69318"
       x="552.96991"
       style="font-style:normal;font-weight:normal;font-size:14.19524765px;line-height:125%;font-family:Sans;letter-spacing:0px;word-spacing:0px;display:inline;fill:#000000;fill-opacity:1;stroke:none"
       xml:space="preserve"><tspan
         style="font-size:8.87203026px"
         y="213.69318"
         x="552.96991"
         id="tspan8620"
         sodipodi:role="line">AS</tspan></text>
    <text
       xml:space="preserve"
       style="font-style:normal;font-weight:normal;font-size:14.19524765px;line-height:125%;font-family:Sans;letter-spacing:0px;word-spacing:0px;display:inline;fill:#000000;fill-opacity:1;stroke:none"
       x="576.65802"
       y="213.69318"
       id="text8622"
       sodipodi:linespacing="125%"><tspan
         sodipodi:role="line"
         id="tspan8624"
         x="576.65802"
         y="213.69318"
         style="font-size:8.87203026px">AS</tspan></text>
    <text
       xml:space="preserve"
       style="font-style:normal;font-weight:normal;font-size:14.19524765px;line-height:125%;font-family:Sans;letter-spacing:0px;word-spacing:0px;display:inline;fill:#000000;fill-opacity:1;stroke:none"
       x="552.96991"
       y="213.69318"
       id="text8626"
       sodipodi:linespacing="125%"><tspan
         sodipodi:role="line"
         id="tspan8628"
         x="552.96991"
         y="213.69318"
         style="font-size:8.87203026px">AS</tspan></text>
  </g>
  <g
     inkscape:groupmode="layer"
     id="layer2"
     inkscape:label="Layer 2">
    <path
       onclick="top.notify(evt)"
       style="cursor:pointer;fill:#000000;fill-rule:evenodd;stroke:#000000;stroke-width:1px;stroke-linecap:butt;stroke-linejoin:miter;stroke-opacity:0;fill-opacity:0"
       d="M 16.920055,34.093007 26.263966,22.602521 36.112953,15.026377 51.770318,8.586655 71.215754,3.7884304 92.302688,1.3893182 89.524769,20.582216 l 0.252538,11.743024 -0.252538,0.883883 -7.323606,-14.015866 -9.47018,-6.565992 -8.586297,-1.010152 -14.394673,4.798224 -12.2481,9.722718 -7.449875,13.763329 -1.262691,3.914341 -3.914341,-9.091373 z"
       id="R_AS"
       inkscape:connector-curvature="0"
       inkscape:label="#path8108" />
    <path
       onclick="top.notify(evt)"
       inkscape:connector-curvature="0"
       id="L_AS"
       d="M 170.11617,34.093007 160.77226,22.602521 150.92327,15.026377 135.3552,7.8723693 115.82047,3.7884304 94.733538,1.3893182 97.511457,20.582216 97.258919,32.32524 l 0.252538,0.883883 7.323603,-14.015866 9.47018,-6.565992 8.5863,-1.010152 15.19824,4.351795 12.15882,9.454861 6.11059,14.656186 1.08412,6.23577 4.71791,-11.591373 z"
       style="cursor:pointer;fill:#000000;fill-rule:evenodd;stroke:#000000;stroke-width:1px;stroke-linecap:butt;stroke-linejoin:miter;stroke-opacity:0;fill-opacity:0"
       sodipodi:nodetypes="cccccccccccccccccc"
       inkscape:label="#path8110" />
    <path
       onclick="top.notify(evt)"
       style="cursor:pointer;fill:#000000;fill-rule:evenodd;stroke:#000000;stroke-width:1px;stroke-linecap:butt;stroke-linejoin:miter;stroke-opacity:0;fill-opacity:0"
       d="M 60.089285,14.083878 C 59.285714,13.994593 46.25,20.155307 46.25,20.155307 l -9.196429,8.392857 -4.107143,7.5 -3.482142,9.285714 L 30,52.566021 l 1.160714,5 59.732143,0 L 90.178571,54.262449 88.214285,34.441021 81.517857,22.38745 72.5,14.173164 Z"
       id="R_TZa"
       inkscape:connector-curvature="0"
       inkscape:label="#path8112" />
    <path
       onclick="top.notify(evt)"
       inkscape:connector-curvature="0"
       id="L_TZa"
       d="m 126.27362,14.083878 c 0.80358,-0.08929 13.83929,6.071429 13.83929,6.071429 l 9.19643,8.392857 4.10714,7.5 3.48214,9.285714 -0.53571,7.232143 -1.16071,5 -59.732147,0 0.714286,-3.303572 1.964286,-19.821428 6.696425,-12.053571 9.01786,-8.214286 z"
       style="cursor:pointer;fill:#000000;fill-rule:evenodd;stroke:#000000;stroke-width:1px;stroke-linecap:butt;stroke-linejoin:miter;stroke-opacity:0;fill-opacity:0"
       inkscape:label="#path8114" />
    <path
       onclick="top.notify(evt)"
       style="cursor:pointer;fill:#000000;fill-rule:evenodd;stroke:#000000;stroke-width:1px;stroke-linecap:butt;stroke-linejoin:miter;stroke-opacity:0;fill-opacity:0"
       d="m 92.232142,59.083878 0.267857,15.803571 -40.714285,0 -10,-5.267857 -9.196428,-10.446428 z"
       id="R_TZp"
       inkscape:connector-curvature="0"
       inkscape:label="#path8116" />
    <path
       onclick="top.notify(evt)"
       style="cursor:pointer;fill:#000000;fill-rule:evenodd;stroke:#000000;stroke-width:1px;stroke-linecap:butt;stroke-linejoin:miter;stroke-opacity:0;fill-opacity:0"
       d="m 94.007321,59.473089 0,15.59423 32.072339,0.378807 8.3969,-0.568211 10.48033,-5.303301 9.15451,-10.227794 z"
       id="L_TZp"
       inkscape:connector-curvature="0"
       inkscape:label="#path8118" />
    <path
       onclick="top.notify(evt)"
       style="cursor:pointer;fill:#000000;fill-rule:evenodd;stroke:#000000;stroke-width:1px;stroke-linecap:butt;stroke-linejoin:miter;stroke-opacity:0;fill-opacity:0"
       d="m 171.47339,35.292563 -8.52316,0.252538 -3.09359,7.38674 -3.09359,15.215423 25.25381,9.912122 -2.20971,-14.773481 z"
       id="L_PZa"
       inkscape:connector-curvature="0"
       inkscape:label="#path8120" />
    <path
       onclick="top.notify(evt)"
       style="cursor:pointer;fill:#000000;fill-rule:evenodd;stroke:#000000;stroke-width:1px;stroke-linecap:butt;stroke-linejoin:miter;stroke-opacity:0;fill-opacity:0"
       d="m 156.78571,60.155307 -12.05357,52.053573 18.125,-6.60715 12.85714,-11.339281 6.33929,-17.589285 0.26786,-7.232143 z"
       id="L_PZpl"
       inkscape:connector-curvature="0"
       inkscape:label="#path8122" />
    <path
       onclick="top.notify(evt)"
       style="cursor:pointer;fill:#000000;fill-rule:evenodd;stroke:#000000;stroke-width:1px;stroke-linecap:butt;stroke-linejoin:miter;stroke-opacity:0;fill-opacity:0"
       d="m 15.531095,35.545101 6.439723,0.69448 c 0,0 3.219861,4.608821 3.661803,5.42957 0.441941,0.820749 4.293148,16.730651 4.293148,16.730651 l -26.0745624,7.449875 1.8309014,-8.7757 c 0,0 5.240166,-11.743023 5.366435,-12.184965 0.126269,-0.441942 4.482552,-9.343911 4.482552,-9.343911 z"
       id="R_PZa"
       inkscape:connector-curvature="0"
       inkscape:label="#path8124" />
    <path
       onclick="top.notify(evt)"
       style="cursor:pointer;fill:#000000;fill-rule:evenodd;stroke:#000000;stroke-width:1px;stroke-linecap:butt;stroke-linejoin:miter;stroke-opacity:0;fill-opacity:0"
       d="M 30.178571,60.244592 40.892857,114.17316 30,111.85173 13.928571,102.20888 5.2678571,89.887449 3.0357143,70.601735 l 0.9821428,-3.125 z"
       id="R_PZpl"
       inkscape:connector-curvature="0"
       inkscape:label="#path8126" />
    <path
       onclick="top.notify(evt)"
       style="cursor:pointer;fill:#000000;fill-rule:evenodd;stroke:#000000;stroke-width:1px;stroke-linecap:butt;stroke-linejoin:miter;stroke-opacity:0;fill-opacity:0"
       d="m 32.198612,60.483242 6.944799,23.991122 10.354063,17.172596 17.930208,14.64721 25.253813,1.01015 -0.757614,-40.4061 -41.542523,0.252539 c 0,0 -9.848987,-5.177032 -10.732871,-6.439723 -0.883883,-1.262691 -7.828682,-10.732871 -7.828682,-10.732871"
       id="R_CZ"
       inkscape:connector-curvature="0"
       inkscape:label="#path8128" />
    <path
       onclick="top.notify(evt)"
       inkscape:connector-curvature="0"
       id="L_CZ"
       d="m 154.40745,60.483242 -6.9448,23.991122 -10.35406,17.172596 -17.93021,14.64721 -25.253813,1.01015 0.757614,-40.4061 41.542519,0.252539 c 0,0 9.84899,-5.177032 10.73288,-6.439723 0.88388,-1.262691 7.82868,-10.732871 7.82868,-10.732871"
       style="cursor:pointer;fill:#000000;fill-rule:evenodd;stroke:#000000;stroke-width:1px;stroke-linecap:butt;stroke-linejoin:miter;stroke-opacity:0;fill-opacity:0"
       inkscape:label="#path8130" />
  </g>
</svg>
