<?xml version="1.0" encoding="UTF-8" standalone="no"?>
<!-- Created with Inkscape (http://www.inkscape.org/) -->

<svg
   xmlns:dc="http://purl.org/dc/elements/1.1/"
   xmlns:cc="http://creativecommons.org/ns#"
   xmlns:rdf="http://www.w3.org/1999/02/22-rdf-syntax-ns#"
   xmlns:svg="http://www.w3.org/2000/svg"
   xmlns="http://www.w3.org/2000/svg"
   xmlns:sodipodi="http://sodipodi.sourceforge.net/DTD/sodipodi-0.dtd"
   xmlns:inkscape="http://www.inkscape.org/namespaces/inkscape"
   width="44.257725mm"
   height="40.290092mm"
   viewBox="0 0 156.81871 142.76017"
   id="svg18026"
   version="1.1"
   inkscape:version="0.91 r13725"
   sodipodi:docname="mid.svg">
  <defs
     id="defs18028" />
  <sodipodi:namedview
     id="base"
     pagecolor="#ffffff"
     bordercolor="#666666"
     borderopacity="1.0"
     inkscape:pageopacity="0.0"
     inkscape:pageshadow="2"
     inkscape:zoom="3.959798"
     inkscape:cx="54.079759"
     inkscape:cy="81.136427"
     inkscape:document-units="px"
     inkscape:current-layer="layer2"
     showgrid="false"
     fit-margin-top="0"
     fit-margin-left="0"
     fit-margin-right="0"
     fit-margin-bottom="0"
     inkscape:window-width="1863"
     inkscape:window-height="1056"
     inkscape:window-x="57"
     inkscape:window-y="24"
     inkscape:window-maximized="1" />
  <metadata
     id="metadata18031">
    <rdf:RDF>
      <cc:Work
         rdf:about="">
        <dc:format>image/svg+xml</dc:format>
        <dc:type
           rdf:resource="http://purl.org/dc/dcmitype/StillImage" />
        <dc:title />
      </cc:Work>
    </rdf:RDF>
  </metadata>
  <g
     inkscape:label="Layer 1"
     inkscape:groupmode="layer"
     id="layer1"
     transform="translate(-506.23042,-239.28381)"
     sodipodi:insensitive="true">
    <text
       xml:space="preserve"
       style="font-style:normal;font-variant:normal;font-weight:500;font-stretch:normal;font-size:17.5px;line-height:125%;font-family:sans-serif;-inkscape-font-specification:'sans-serif Medium';text-align:start;letter-spacing:0px;word-spacing:0px;writing-mode:lr-tb;text-anchor:start;fill:#85c5eb;fill-opacity:1;stroke:none;stroke-width:1px;stroke-linecap:butt;stroke-linejoin:miter;stroke-opacity:1"
       x="506.37555"
       y="253.25154"
       id="text8439"
       sodipodi:linespacing="125%"><tspan
         sodipodi:role="line"
         id="tspan8441"
         x="506.37555"
         y="253.25154">R</tspan></text>
    <text
       sodipodi:linespacing="125%"
       id="text8443"
       y="253.50916"
       x="652.35907"
       style="font-style:normal;font-variant:normal;font-weight:500;font-stretch:normal;font-size:17.5px;line-height:125%;font-family:sans-serif;-inkscape-font-specification:'sans-serif Medium';text-align:start;letter-spacing:0px;word-spacing:0px;writing-mode:lr-tb;text-anchor:start;fill:#85c5eb;fill-opacity:1;stroke:none;stroke-width:1px;stroke-linecap:butt;stroke-linejoin:miter;stroke-opacity:1"
       xml:space="preserve"><tspan
         y="253.50916"
         x="652.35907"
         id="tspan8445"
         sodipodi:role="line">L</tspan></text>
    <path
       style="color:#000000;clip-rule:nonzero;display:inline;overflow:visible;visibility:visible;opacity:1;isolation:auto;mix-blend-mode:normal;color-interpolation:sRGB;color-interpolation-filters:linearRGB;solid-color:#000000;solid-opacity:1;fill:#f1c3cf;fill-opacity:1;fill-rule:evenodd;stroke:#000000;stroke-width:0.12551145;stroke-linecap:butt;stroke-linejoin:miter;stroke-miterlimit:4;stroke-dasharray:none;stroke-dashoffset:0;stroke-opacity:1;color-rendering:auto;image-rendering:auto;shape-rendering:auto;text-rendering:auto;enable-background:accumulate"
       d="m 624.38484,259.07306 c -1.02129,2.23744 -0.6109,5.06451 -1.04828,7.49786 1.6157,2.34692 4.24571,4.21794 5.90757,6.70228 4.35112,5.87353 7.28604,12.8936 8.41622,20.15186 0.23512,6.69251 0.66296,13.61843 -2.02188,19.92673 -2.14646,6.38675 -7.24227,11.77745 -13.74163,13.68915 -7.51936,2.62231 -17.18493,0.18247 -23.71116,-4.26102 -0.0636,0.62482 -0.30927,0.77837 -0.40665,1.06265 -0.0974,0.28428 -0.76515,0.18365 -0.95423,0.31575 -0.37807,0.26419 -1.71602,-0.10326 -3.37019,-1.34893 -2.67089,-2.2993 -7.02013,-7.51181 -10.76766,-7.70709 -4.36864,1.95606 -6.60591,7.0276 -11.00297,8.85265 -0.22015,-0.38344 -0.51739,-2.34681 -0.79156,-2.85633 -0.27418,-0.50952 -0.52529,0.4348 -0.87194,0.648 -3.99279,2.92954 -8.2227,5.96348 -13.32869,6.55524 -4.81144,0.76456 -10.02174,0.5719 -14.22361,-2.1814 -5.70562,-3.58606 -10.47516,-8.96699 -12.23065,-15.59531 -2.54803,-7.85822 -2.81683,-16.64642 0.5299,-24.30722 2.59745,-6.75361 7.08526,-12.61066 12.21519,-17.67696 -0.007,-3.09157 -0.0761,-6.34165 -0.43918,-9.39885 -5.90379,2.23746 -10.48456,7.04962 -15.31121,11.02921 -5.42373,4.86346 -9.6987,10.92553 -13.34042,17.19843 -3.59095,6.72837 -7.06384,13.8736 -7.10078,21.67406 -0.27668,10.10403 1.17203,20.64292 6.1654,29.5687 5.59214,7.98299 13.61702,14.21611 22.49523,18.17731 13.23595,5.8672 28.00761,5.15089 42.14078,5.81523 16.97249,0.52365 34.40544,-0.13929 50.55926,-5.85804 10.65385,-4.31305 20.4093,-11.60649 26.5828,-21.40103 4.31218,-7.56172 4.77924,-16.61932 4.65074,-25.12715 -0.0787,-8.21312 -2.65897,-16.21335 -6.86667,-23.22404 -6.65118,-11.5679 -16.64145,-21.39637 -28.07434,-28.18829 l -0.0594,0.26652 z"
       id="path8710"
       inkscape:connector-curvature="0"
       sodipodi:nodetypes="cccccccsscccscccccccccccccccccccc" />
    <path
       style="color:#000000;clip-rule:nonzero;display:inline;overflow:visible;visibility:visible;opacity:1;isolation:auto;mix-blend-mode:normal;color-interpolation:sRGB;color-interpolation-filters:linearRGB;solid-color:#000000;solid-opacity:1;fill:#fef700;fill-opacity:1;fill-rule:evenodd;stroke:#000000;stroke-width:0.06275573;stroke-linecap:butt;stroke-linejoin:miter;stroke-miterlimit:4;stroke-dasharray:none;stroke-dashoffset:0;stroke-opacity:1;color-rendering:auto;image-rendering:auto;shape-rendering:auto;text-rendering:auto;enable-background:accumulate"
       d="m 563.20534,260.80001 c -5.87621,0.043 -11.03371,3.22602 -16.1393,5.73931 -2.90332,1.434 -5.74761,3.18391 -7.67092,5.8576 -5.42798,6.71113 -10.14598,14.53298 -11.05104,23.28161 -0.32145,4.70411 0.34606,9.46043 1.58487,13.99687 1.45324,5.05313 4.21382,9.76613 8.21758,13.21826 3.07489,2.80835 6.9049,4.88973 10.99919,5.71229 5.48474,0.3333 11.24771,-0.41089 15.97536,-3.40025 4.49665,-2.70736 8.51574,-6.46324 10.765,-11.27277 2.6025,-5.1504 4.50869,-10.69533 5.18805,-16.44202 0.66136,-4.80389 0.46032,-9.6949 0.0843,-14.51647 -0.69698,-5.2913 -2.17312,-10.50576 -4.38656,-15.3637 -1.4401,-3.3756 -4.74056,-5.63789 -8.2886,-6.29875 -1.72813,-0.39281 -3.5072,-0.55349 -5.27798,-0.51198 z m 8.68277,37.95761 c 0.0825,0.12246 -0.0848,0.21076 0,0 z m -8.49909,0.0186 c 0.12409,0.17374 -0.0652,0.24088 0,0 z"
       id="path8708"
       inkscape:connector-curvature="0" />
    <path
       style="fill:none;fill-rule:evenodd;stroke:#000000;stroke-width:0.35499999;stroke-linecap:butt;stroke-linejoin:miter;stroke-miterlimit:4;stroke-dasharray:none;stroke-opacity:1"
       d="m 624.11636,258.49715 -0.79994,8.46032 -3.66053,-2.16238 -4.02925,-2.16865 c 0,0 -2.08586,-0.85791 -3.17662,-1.1276 -1.44672,-0.3577 -2.93513,-0.59683 -4.42478,-0.64017 -2.06908,-0.0602 -4.22588,-0.13149 -6.18719,0.53033 -3.02431,1.02052 -5.96192,2.979 -8.08547,5.12993 -2.12356,2.15094 -3.48749,4.80481 -4.90279,7.39755 -1.51533,2.7521 -2.50024,5.79772 -2.59186,9.06172 -0.0916,3.264 -0.91633,7.34479 -1.60096,8.25861 -0.68462,0.91381 -1.16841,0.93469 -1.87013,0.2996 -2.26309,-2.04819 -1.0444,-6.21402 -1.7513,-9.28235 -0.94008,-4.08048 -1.63342,-8.28061 -3.30698,-12.119 -1.05932,-2.42961 -2.05291,-5.19484 -4.19622,-6.75413 -2.9701,-2.16079 -7.0225,-2.59516 -10.695,-2.65166 -2.16245,-0.0333 -4.28985,0.68579 -6.34251,1.36688 -2.49018,0.82626 -7.15946,3.27037 -7.15946,3.27037 l -6.12024,3.30162 -0.3321,-9.93075 c 8.28711,-4.14482 17.62688,-9.12876 25.80939,-10.96015 6.70252,-1.43153 13.68298,-2.14923 20.5061,-1.50261 8.71581,0.82599 17.26675,3.48534 25.36745,6.80591 3.38638,1.38812 9.55039,5.41661 9.55039,5.41661 z"
       id="path8576"
       inkscape:connector-curvature="0"
       sodipodi:nodetypes="ccccaaascsssaaaaaccccaac" />
    <path
       style="fill:none;fill-rule:evenodd;stroke:#000000;stroke-width:0.35499999;stroke-linecap:butt;stroke-linejoin:miter;stroke-miterlimit:4;stroke-dasharray:none;stroke-opacity:1"
       d="m 543.09017,268.77131 c -4.01174,3.44717 -7.17494,7.89725 -9.75805,12.51294 -2.21611,3.95993 -4.08565,8.26427 -4.77144,12.75 -0.70409,4.60539 0.76386,13.95581 0.76386,13.95581 0,0 2.9177,8.90739 6,12.25 3.64767,3.95571 8.61073,7.13619 13.875,8.25 4.10567,0.86867 12.5,-1.5 12.5,-1.5 0,0 6.84841,-3.72668 9.5,-6.5 2.6768,-2.79969 4.58756,-6.31976 6.125,-9.875 1.98577,-4.59197 3.19001,-9.54416 3.875,-14.5 0.42077,-3.04426 0.32114,-6.15182 0.125,-9.21875 -0.23369,-3.65402 -0.5547,-7.32466 -1.54687,-10.875 -0.50242,-1.7978 -1.07065,-3.20105 -1.58854,-5.03526 -0.51789,-1.83421 -1.45418,-3.66187 -2.48959,-5.26162 -1.79084,-2.76691 -5.39354,-3.94902 -8.5625,-4.6875 -2.83303,-0.66019 -5.88545,-0.28403 -8.71875,0.375 -3.61844,0.84167 -10.20313,4.48438 -10.20313,4.48438 0,0 -3.63934,1.59843 -5.12499,2.875 z"
       id="path8582"
       inkscape:connector-curvature="0"
       sodipodi:nodetypes="aaacaacaaaasssaaca" />
    <path
       style="color:#000000;clip-rule:nonzero;display:inline;overflow:visible;visibility:visible;opacity:1;isolation:auto;mix-blend-mode:normal;color-interpolation:sRGB;color-interpolation-filters:linearRGB;solid-color:#000000;solid-opacity:1;fill:#0092ff;fill-opacity:0.88109753;fill-rule:evenodd;stroke:#000000;stroke-width:0.044375;stroke-linecap:butt;stroke-linejoin:miter;stroke-miterlimit:4;stroke-dasharray:none;stroke-dashoffset:0;stroke-opacity:1;color-rendering:auto;image-rendering:auto;shape-rendering:auto;text-rendering:auto;enable-background:accumulate"
       d="m 582.31061,246.23281 c -5.72291,0.27174 -11.47445,0.99905 -16.97696,2.65085 -7.8036,2.49285 -15.09077,6.30885 -22.36802,10.01516 -0.33337,0.57888 0.0505,1.36493 -0.0467,2.03093 0.11472,2.4534 0.043,4.91878 0.26965,7.36458 0.41028,0.63903 1.11176,-0.12859 1.56787,-0.31787 3.70082,-1.91769 7.38958,-3.88428 11.24923,-5.45463 3.90562,-1.52866 8.25129,-1.94082 12.35232,-0.93372 2.62084,0.51645 5.30559,1.66192 6.90309,3.92753 2.35683,3.11948 3.24126,7.03719 4.41992,10.70276 0.71423,2.72144 1.22116,5.50257 1.49284,8.29473 0.19808,2.01152 -0.16271,4.18231 0.74861,6.05757 0.36327,0.46052 0.55604,1.35532 1.24121,1.3872 3.01742,0.28199 3.01817,-8.7655 3.51614,-11.65421 0.75419,-4.15166 3.02406,-7.84352 5.34496,-11.31715 2.2358,-3.21372 5.63545,-5.59768 9.25585,-7.07234 2.77362,-1.03942 5.80855,-0.81848 8.67773,-0.55444 3.70171,0.37062 6.98246,2.26272 10.19166,4.01034 0.97748,0.50864 1.85748,1.2263 2.88671,1.6215 0.60283,-0.16518 0.32701,-1.02227 0.48656,-1.49218 0.20637,-2.23643 0.49379,-4.49193 0.60875,-6.71985 -1.04273,-0.9008 -2.38022,-1.55455 -3.564,-2.31764 -3.21201,-1.97386 -6.63078,-3.58703 -10.18936,-4.82976 -8.52086,-3.17901 -17.50904,-5.36296 -26.64102,-5.45381 -0.41502,0.0821 -0.95345,-0.0464 -1.427,0.0545 z"
       id="path8616"
       inkscape:connector-curvature="0"
       sodipodi:nodetypes="cccccccccccccccccccccccccc" />
    <path
       sodipodi:nodetypes="aaacaacaaaasssaaca"
       inkscape:connector-curvature="0"
       id="path8584"
       d="m 543.09017,268.77131 c -4.01174,3.44717 -7.17494,7.89725 -9.75805,12.51294 -2.21611,3.95993 -4.08565,8.26427 -4.77144,12.75 -0.70409,4.60539 0.76386,13.95581 0.76386,13.95581 0,0 2.9177,8.90739 6,12.25 3.64767,3.95571 8.61073,7.13619 13.875,8.25 4.10567,0.86867 12.5,-1.5 12.5,-1.5 0,0 6.84841,-3.72668 9.5,-6.5 2.6768,-2.79969 4.58756,-6.31976 6.125,-9.875 1.98577,-4.59197 3.19001,-9.54416 3.875,-14.5 0.42077,-3.04426 0.32114,-6.15182 0.125,-9.21875 -0.23369,-3.65402 -0.5547,-7.32466 -1.54687,-10.875 -0.50242,-1.7978 -1.07065,-3.20105 -1.58854,-5.03526 -0.51789,-1.83421 -1.45418,-3.66187 -2.48959,-5.26162 -1.79084,-2.76691 -5.39354,-3.94902 -8.5625,-4.6875 -2.83303,-0.66019 -5.88545,-0.28403 -8.71875,0.375 -3.61844,0.84167 -10.20313,4.48438 -10.20313,4.48438 0,0 -3.63934,1.59843 -5.12499,2.875 z"
       style="fill:none;fill-rule:evenodd;stroke:#000000;stroke-width:0.35499999;stroke-linecap:butt;stroke-linejoin:miter;stroke-miterlimit:4;stroke-dasharray:none;stroke-opacity:1" />
    <path
       style="color:#000000;clip-rule:nonzero;display:inline;overflow:visible;visibility:visible;opacity:1;isolation:auto;mix-blend-mode:normal;color-interpolation:sRGB;color-interpolation-filters:linearRGB;solid-color:#000000;solid-opacity:1;fill:#fef700;fill-opacity:1;fill-rule:evenodd;stroke:#000000;stroke-width:0.12551145;stroke-linecap:butt;stroke-linejoin:miter;stroke-miterlimit:4;stroke-dasharray:none;stroke-dashoffset:0;stroke-opacity:1;color-rendering:auto;image-rendering:auto;shape-rendering:auto;text-rendering:auto;enable-background:accumulate"
       d="m 606.52719,260.81826 c -6.40919,-0.2169 -12.16845,3.77246 -15.54312,9.00715 -4.04658,5.6247 -5.25485,12.64718 -5.18038,19.43653 -0.30841,10.17373 2.69301,20.49004 8.4442,28.88428 4.7968,6.11545 12.5086,10.54565 20.46459,9.71439 8.15994,-0.0362 16.24908,-4.72061 19.64945,-12.25469 5.86268,-12.2564 4.36795,-27.24885 -2.64744,-38.71948 -3.50096,-6.17476 -8.91733,-11.22184 -15.51015,-13.93857 -3.00383,-1.46995 -6.33553,-2.18878 -9.67715,-2.12961 z"
       id="path8674"
       inkscape:connector-curvature="0" />
    <path
       style="fill:none;fill-rule:evenodd;stroke:#000000;stroke-width:0.35499999;stroke-linecap:butt;stroke-linejoin:miter;stroke-miterlimit:4;stroke-dasharray:none;stroke-opacity:1"
       d="m 624.80239,268.19679 c 4.01174,3.44717 6.97686,8.24741 9.22772,13.08746 2.2766,4.89538 3.71606,10.28224 4.10853,15.66682 0.31225,4.28396 -0.16971,8.69949 -1.42678,12.80676 -1.32509,4.32952 -3.05355,8.88255 -6.30935,12.02903 -3.4093,3.29481 -8.1456,5.34708 -12.81434,6.17287 -3.96273,0.70091 -8.2248,0.1649 -12.01387,-1.19064 -3.55091,-1.27034 -6.78948,-3.56846 -9.41161,-6.27903 -2.69314,-2.78397 -4.58756,-6.31976 -6.125,-9.875 -1.98577,-4.59197 -3.19001,-9.54416 -3.875,-14.5 -0.42077,-3.04426 -0.3318,-6.15252 -0.125,-9.21875 -0.0277,-9.81335 4.98262,-21.32275 15.02719,-25.06388 8.25308,-2.90508 17.73591,1.56256 23.73751,6.36436 z"
       id="path8586"
       inkscape:connector-curvature="0"
       sodipodi:nodetypes="caaaaaaaaaccc" />
    <path
       sodipodi:nodetypes="cc"
       style="fill:none;stroke:#000000;stroke-width:0.3548812;stroke-linecap:butt;stroke-linejoin:miter;stroke-miterlimit:4;stroke-dasharray:4.2585744, 4.2585744;stroke-dashoffset:0;stroke-opacity:1"
       d="m 528.99089,298.69504 51.59383,0.0842"
       id="path8588"
       inkscape:connector-curvature="0" />
    <path
       inkscape:connector-curvature="0"
       id="path8596"
       d="m 639.43142,299.59836 -12.59115,56.82516"
       style="fill:none;stroke:#000000;stroke-width:0.3548812;stroke-linecap:butt;stroke-linejoin:miter;stroke-miterlimit:4;stroke-dasharray:4.2585744, 4.2585744;stroke-dashoffset:0;stroke-opacity:1"
       sodipodi:nodetypes="cc" />
    <path
       inkscape:connector-curvature="0"
       id="path8578"
       d="m 583.55612,246.15857 -0.0842,45.76019"
       style="fill:none;stroke:#000000;stroke-width:0.3548812;stroke-linecap:butt;stroke-linejoin:miter;stroke-miterlimit:4;stroke-dasharray:4.2585744, 4.2585744;stroke-dashoffset:0;stroke-opacity:1"
       sodipodi:nodetypes="cc" />
    <path
       sodipodi:nodetypes="cc"
       style="fill:none;stroke:#000000;stroke-width:0.3548812;stroke-linecap:butt;stroke-linejoin:miter;stroke-miterlimit:4;stroke-dasharray:4.2585744, 4.2585744;stroke-dashoffset:0;stroke-opacity:1"
       d="m 638.33675,298.89884 20.87852,8.39968"
       id="path8598"
       inkscape:connector-curvature="0" />
    <path
       inkscape:connector-curvature="0"
       id="path8600"
       d="m 528.04696,299.42917 -20.87852,8.39968"
       style="fill:none;stroke:#000000;stroke-width:0.3548812;stroke-linecap:butt;stroke-linejoin:miter;stroke-miterlimit:4;stroke-dasharray:4.2585744, 4.2585744;stroke-dashoffset:0;stroke-opacity:1"
       sodipodi:nodetypes="cc" />
    <path
       sodipodi:nodetypes="cc"
       style="fill:none;stroke:#000000;stroke-width:0.3548812;stroke-linecap:butt;stroke-linejoin:miter;stroke-miterlimit:4;stroke-dasharray:4.2585744, 4.2585744;stroke-dashoffset:0;stroke-opacity:1"
       d="m 529.08276,307.37653 9.59084,50.91156"
       id="path8602"
       inkscape:connector-curvature="0" />
    <text
       sodipodi:linespacing="125%"
       id="text8630"
       y="255.66554"
       x="568.87073"
       style="font-style:normal;font-weight:normal;font-size:14.19524765px;line-height:125%;font-family:Sans;letter-spacing:0px;word-spacing:0px;display:inline;fill:#000000;fill-opacity:1;stroke:none"
       xml:space="preserve"><tspan
         style="font-size:8.87203026px"
         y="255.66554"
         x="568.87073"
         id="tspan8632"
         sodipodi:role="line">AS</tspan></text>
    <text
       xml:space="preserve"
       style="font-style:normal;font-weight:normal;font-size:14.19524765px;line-height:125%;font-family:Sans;letter-spacing:0px;word-spacing:0px;display:inline;fill:#000000;fill-opacity:1;stroke:none"
       x="587.37073"
       y="255.66554"
       id="text8634"
       sodipodi:linespacing="125%"><tspan
         sodipodi:role="line"
         id="tspan8636"
         x="587.37073"
         y="255.66554"
         style="font-size:8.87203026px">AS</tspan></text>
    <path
       sodipodi:nodetypes="cc"
       style="fill:none;stroke:#000000;stroke-width:0.3548812;stroke-linecap:butt;stroke-linejoin:miter;stroke-miterlimit:4;stroke-dasharray:4.2585744, 4.2585744;stroke-dashoffset:0;stroke-opacity:1"
       d="m 583.4374,291.82018 -0.0842,70.26019"
       id="path8594"
       inkscape:connector-curvature="0" />
    <text
       xml:space="preserve"
       style="font-style:normal;font-weight:normal;font-size:14.19524765px;line-height:125%;font-family:Sans;letter-spacing:0px;word-spacing:0px;display:inline;fill:#000000;fill-opacity:1;stroke:none"
       x="550.48596"
       y="289.60672"
       id="text8646"
       sodipodi:linespacing="125%"><tspan
         sodipodi:role="line"
         id="tspan8648"
         x="550.48596"
         y="289.60672"
         style="font-size:8.87203026px">TZa</tspan></text>
    <text
       sodipodi:linespacing="125%"
       id="text8650"
       y="289.60672"
       x="601.04407"
       style="font-style:normal;font-weight:normal;font-size:14.19524765px;line-height:125%;font-family:Sans;letter-spacing:0px;word-spacing:0px;display:inline;fill:#000000;fill-opacity:1;stroke:none"
       xml:space="preserve"><tspan
         style="font-size:8.87203026px"
         y="289.60672"
         x="601.04407"
         id="tspan8652"
         sodipodi:role="line">TZa</tspan></text>
    <path
       style="fill:none;fill-rule:evenodd;stroke:#000000;stroke-width:0.35499999;stroke-linecap:butt;stroke-linejoin:miter;stroke-miterlimit:4;stroke-dasharray:none;stroke-opacity:1"
       d="m 571.00858,320.68016 c -2.29484,2.28493 -5.2283,4.02463 -7.95251,5.63074 -3.30929,1.95107 -9.02624,2.82493 -13.6118,2.38649 -2.8406,-0.2716 -5.59885,-1.50622 -7.99914,-3.0494 -3.21787,-2.06882 -6.07188,-4.86094 -8.17056,-8.05942 -2.19783,-3.34958 -3.43541,-7.3056 -4.3364,-11.20924 -0.39234,-1.69985 -0.49736,-3.43898 -0.6617,-5.18732 -0.16435,-1.74833 -0.21125,-3.70474 -0.0454,-5.44137 0.35814,-3.75017 1.48158,-7.27094 2.89184,-10.67826 1.38875,-3.35537 3.27217,-6.52161 5.41666,-9.45219 1.89019,-2.58306 4.64852,-4.96725 6.49654,-7.07107 -0.40884,-3.13177 -0.002,-7.5646 -0.40586,-9.62637 -3.87788,1.40704 -7.50378,4.38169 -10.35166,6.77946 -0.92075,0.77596 -2.90814,2.37745 -3.70889,3.05757 -3.32856,2.72728 -5.4962,5.14563 -7.81434,8.09337 -3.51,4.4633 -6.62824,9.28522 -9.11966,14.38757 -1.99424,4.08414 -3.8325,8.35735 -4.59243,12.83838 -0.92312,5.44327 -0.66412,11.09819 0.125,16.5625 0.82091,5.68442 2.02451,11.50698 4.75,16.5625 2.21542,4.10939 5.6203,7.54081 9.125,10.625 3.88409,3.41806 8.27744,6.3443 12.96521,8.53384 4.81997,2.25129 10.04725,3.6592 15.28479,4.59116 8.8359,1.57225 17.90404,1.36613 26.875,1.625 7.72598,0.22294 15.49759,0.71576 23.1875,-0.0625 9.95923,-1.00793 20.13203,-2.24827 29.4375,-5.9375 6.01906,-2.38631 11.62958,-5.98355 16.5,-10.25 4.09729,-3.5892 8.00686,-7.71969 10.375,-12.625 2.45188,-5.07877 3.21805,-10.91178 3.55433,-16.54139 0.38109,-6.37981 0.18966,-13.00783 -1.76777,-19.09188 -2.72999,-8.4853 -7.76038,-16.26932 -13.52341,-23.06936 -5.51647,-6.50911 -12.68472,-12.06363 -19.66089,-16.39052 -0.15826,2.3167 -0.90645,6.26182 -1.15457,8.39138 1.95592,1.70761 4.21634,3.89788 5.92202,6.18717 2.2074,2.9627 4.14163,6.19068 5.48008,9.63434 1.87203,4.81649 3.30588,9.94883 3.44715,15.11441 0.15035,5.49796 -0.74444,11.15567 -2.78424,16.26345 -1.29557,3.2442 -3.21423,6.39496 -5.83364,8.70625 -2.63299,2.32328 -6.01534,3.84347 -9.41335,4.72878 -3.2249,0.84021 -6.70341,1.00594 -9.98789,0.44194 -3.52381,-0.60509 -6.93714,-2.08669 -9.94368,-4.02167 l -3.36539,-3.07165 c 0,0 1.66418,1.4527 1.375,2.29687 -0.20468,0.5975 -1.1409,0.78032 -1.76562,0.68751 -2.57554,-0.38266 -6.14063,-4.82813 -6.14063,-4.82813 0,0 -4,-3.125 -4.5,-3.25 -0.5,-0.125 -2.5625,-1.1875 -3,-1 -0.4375,0.1875 -3,1.9375 -3.1875,2.0625 -0.1875,0.125 -2.0625,2.3125 -2.5,2.875 -0.4375,0.5625 -3,2.75 -3.5625,3.125 -0.5625,0.375 -1.46094,0.98437 -1.89844,0.48437 -0.4375,-0.5 -0.44875,-2.75831 -0.44875,-2.75831 z m 23.23878,-2.45166 c -2.31357,-3.12344 -4.22268,-6.74061 -5.55866,-10.39077 -1.24525,-3.40227 -2.0459,-6.97654 -2.56327,-10.5624 -0.43386,-3.0071 -0.12281,-7.21838 -0.22319,-9.87744 -0.0249,-0.65834 -0.41252,1.95924 -0.84284,3.01314 -0.43033,1.0539 -0.833,1.35662 -1.49722,1.69358 -0.9413,0.47752 -2.11574,-2.82329 -2.11574,-2.82329 0.0392,2.86678 -0.15426,5.74204 -0.42021,8.48218 -0.26594,2.74014 -1.22869,5.51679 -2.10445,8.21808 -1.01625,3.07971 -2.11677,5.96573 -3.66811,8.70625"
       id="path8592"
       inkscape:connector-curvature="0"
       sodipodi:nodetypes="csaaasssaaccccaaaaaaaaaaaaaaaaccaaaaaaaccaasscsccsccsscsscscc" />
    <text
       xml:space="preserve"
       style="font-style:normal;font-weight:normal;font-size:14.19524765px;line-height:125%;font-family:Sans;letter-spacing:0px;word-spacing:0px;display:inline;fill:#000000;fill-opacity:1;stroke:none"
       x="608.46869"
       y="312.94125"
       id="text8654"
       sodipodi:linespacing="125%"><tspan
         sodipodi:role="line"
         id="tspan8656"
         x="608.46869"
         y="312.94125"
         style="font-size:8.87203026px">TZp</tspan></text>
    <text
       sodipodi:linespacing="125%"
       id="text8658"
       y="312.94125"
       x="540.58643"
       style="font-style:normal;font-weight:normal;font-size:14.19524765px;line-height:125%;font-family:Sans;letter-spacing:0px;word-spacing:0px;display:inline;fill:#000000;fill-opacity:1;stroke:none"
       xml:space="preserve"><tspan
         style="font-size:8.87203026px"
         y="312.94125"
         x="540.58643"
         id="tspan8660"
         sodipodi:role="line">TZp</tspan></text>
    <path
       inkscape:connector-curvature="0"
       id="path8590"
       d="m 586.62009,298.69504 51.59383,0.0842"
       style="fill:none;stroke:#000000;stroke-width:0.3548812;stroke-linecap:butt;stroke-linejoin:miter;stroke-miterlimit:4;stroke-dasharray:4.2585744, 4.2585744;stroke-dashoffset:0;stroke-opacity:1"
       sodipodi:nodetypes="cc" />
    <text
       xml:space="preserve"
       style="font-style:normal;font-weight:normal;font-size:13.43406296px;line-height:125%;font-family:Sans;letter-spacing:0px;word-spacing:0px;display:inline;fill:#000000;fill-opacity:1;stroke:none"
       x="510.9346"
       y="298.80588"
       id="text8662"
       sodipodi:linespacing="125%"><tspan
         sodipodi:role="line"
         id="tspan8664"
         x="510.9346"
         y="298.80588"
         style="font-size:8.39628983px">PZa</tspan></text>
    <text
       sodipodi:linespacing="125%"
       id="text8666"
       y="332.03989"
       x="511.64175"
       style="font-style:normal;font-weight:normal;font-size:13.43406296px;line-height:125%;font-family:Sans;letter-spacing:0px;word-spacing:0px;display:inline;fill:#000000;fill-opacity:1;stroke:none"
       xml:space="preserve"><tspan
         style="font-size:8.39628983px"
         y="332.03989"
         x="511.64175"
         id="tspan8668"
         sodipodi:role="line">PZpl</tspan></text>
    <text
       xml:space="preserve"
       style="font-style:normal;font-weight:normal;font-size:13.43406296px;line-height:125%;font-family:Sans;letter-spacing:0px;word-spacing:0px;display:inline;fill:#000000;fill-opacity:1;stroke:none"
       x="511.64175"
       y="332.03989"
       id="text8712"
       sodipodi:linespacing="125%"><tspan
         sodipodi:role="line"
         id="tspan8714"
         x="511.64175"
         y="332.03989"
         style="font-size:8.39628983px">PZpl</tspan></text>
    <text
       sodipodi:linespacing="125%"
       id="text8716"
       y="332.03989"
       x="635.73895"
       style="font-style:normal;font-weight:normal;font-size:13.43406296px;line-height:125%;font-family:Sans;letter-spacing:0px;word-spacing:0px;display:inline;fill:#000000;fill-opacity:1;stroke:none"
       xml:space="preserve"><tspan
         style="font-size:8.39628983px"
         y="332.03989"
         x="635.73895"
         id="tspan8718"
         sodipodi:role="line">PZpl</tspan></text>
    <text
       sodipodi:linespacing="125%"
       id="text8720"
       y="298.80588"
       x="510.9346"
       style="font-style:normal;font-weight:normal;font-size:13.43406296px;line-height:125%;font-family:Sans;letter-spacing:0px;word-spacing:0px;display:inline;fill:#000000;fill-opacity:1;stroke:none"
       xml:space="preserve"><tspan
         style="font-size:8.39628983px"
         y="298.80588"
         x="510.9346"
         id="tspan8722"
         sodipodi:role="line">PZa</tspan></text>
    <text
       xml:space="preserve"
       style="font-style:normal;font-weight:normal;font-size:13.43406296px;line-height:125%;font-family:Sans;letter-spacing:0px;word-spacing:0px;display:inline;fill:#000000;fill-opacity:1;stroke:none"
       x="638.9209"
       y="298.80588"
       id="text8724"
       sodipodi:linespacing="125%"><tspan
         sodipodi:role="line"
         id="tspan8726"
         x="638.9209"
         y="298.80588"
         style="font-size:8.39628983px">PZa</tspan></text>
    <text
       xml:space="preserve"
       style="font-style:normal;font-weight:normal;font-size:13.43406296px;line-height:125%;font-family:Sans;letter-spacing:0px;word-spacing:0px;display:inline;fill:#000000;fill-opacity:1;stroke:none"
       x="597.90881"
       y="347.24271"
       id="text8728"
       sodipodi:linespacing="125%"><tspan
         sodipodi:role="line"
         id="tspan8730"
         x="597.90881"
         y="347.24271"
         style="font-size:8.39628983px">PZpm</tspan><tspan
         sodipodi:role="line"
         x="597.90881"
         y="357.73807"
         style="font-size:8.39628983px"
         id="tspan8732" /></text>
    <text
       sodipodi:linespacing="125%"
       id="text8734"
       y="347.24271"
       x="549.11847"
       style="font-style:normal;font-weight:normal;font-size:13.43406296px;line-height:125%;font-family:Sans;letter-spacing:0px;word-spacing:0px;display:inline;fill:#000000;fill-opacity:1;stroke:none"
       xml:space="preserve"><tspan
         style="font-size:8.39628983px"
         y="347.24271"
         x="549.11847"
         id="tspan8736"
         sodipodi:role="line">PZpm</tspan><tspan
         id="tspan8738"
         style="font-size:8.39628983px"
         y="357.73807"
         x="549.11847"
         sodipodi:role="line" /></text>
    <text
       xml:space="preserve"
       style="font-style:normal;font-variant:normal;font-weight:500;font-stretch:normal;font-size:17.5px;line-height:125%;font-family:sans-serif;-inkscape-font-specification:'sans-serif Medium';text-align:start;letter-spacing:0px;word-spacing:0px;writing-mode:lr-tb;text-anchor:start;fill:#85c5eb;fill-opacity:1;stroke:none;stroke-width:1px;stroke-linecap:butt;stroke-linejoin:miter;stroke-opacity:1"
       x="569.85541"
       y="378.59601"
       id="text8740"
       sodipodi:linespacing="125%"><tspan
         sodipodi:role="line"
         id="tspan8742"
         x="569.85541"
         y="378.59601"
         style="font-style:normal;font-variant:normal;font-weight:500;font-stretch:normal;font-size:15px;font-family:sans-serif;-inkscape-font-specification:'sans-serif Medium';fill:#85c5eb;fill-opacity:1">Mid</tspan><tspan
         sodipodi:role="line"
         x="569.85541"
         y="397.34601"
         style="font-style:normal;font-variant:normal;font-weight:500;font-stretch:normal;font-size:15px;font-family:sans-serif;-inkscape-font-specification:'sans-serif Medium';fill:#85c5eb;fill-opacity:1"
         id="tspan8744" /></text>
  </g>
  <g
     inkscape:groupmode="layer"
     id="layer2"
     inkscape:label="Layer 2">
    <path
       onclick="top.notify(evt)"
       style="cursor:pointer;fill:#000000;fill-rule:evenodd;stroke:#000000;stroke-width:1px;stroke-linecap:butt;stroke-linejoin:miter;stroke-opacity:0;fill-opacity:0"
       d="m 35.860415,20.21604 0.252538,8.838835 -4.103744,4.04061 -5.177032,7.386741 -4.103745,9.217641 -1.199556,6.439723 0.06313,3.282996 -20.5187239,8.586296 1.1364216,-6.313453 2.2097087,-6.629126 5.4295699,-10.290929 7.0710677,-9.912122 9.848987,-8.901969 z"
       id="R_PZa"
       inkscape:connector-curvature="0"
       inkscape:label="#path8120" />
    <path
       onclick="top.notify(evt)"
       inkscape:connector-curvature="0"
       id="L_PZa"
       d="m 118.14119,20.21604 -0.25253,8.838835 4.10374,4.04061 5.17703,7.386741 4.10375,9.217641 1.19955,6.439723 -0.0631,3.282996 20.51873,8.586296 -1.13643,-6.313453 -2.2097,-6.629126 -5.42957,-10.290929 -7.07107,-9.912122 -9.84899,-8.901969 z"
       style="cursor:pointer;fill:#000000;fill-rule:evenodd;stroke:#000000;stroke-width:1px;stroke-linecap:butt;stroke-linejoin:miter;stroke-opacity:0;fill-opacity:0"
       inkscape:label="#path8122" />
    <path
       onclick="top.notify(evt)"
       style="cursor:pointer;fill:#000000;fill-rule:evenodd;stroke:#000000;stroke-width:1px;stroke-linecap:butt;stroke-linejoin:miter;stroke-opacity:0;fill-opacity:0"
       d="m 37.321428,19.724457 0.357143,8.839285 5.982143,-4.017857 8.571429,-3.303571 8.125,-0.357143 6.874999,1.607143 3.571429,4.553571 4.107143,12.142857 0.892857,10.089286 0.714286,2.142857 0,-44.1964284 -8.660715,0.8035715 -12.410714,3.5714289 z"
       id="R_AS"
       inkscape:connector-curvature="0"
       inkscape:label="#path8124" />
    <path
       onclick="top.notify(evt)"
       inkscape:connector-curvature="0"
       id="L_AS"
       d="m 117.39746,19.724457 -0.35714,8.839285 -5.98214,-4.017857 -8.57143,-3.303571 -8.125002,-0.357143 -4.999999,2.857143 -4.553572,4.553571 -5,10.892857 -0.892857,10.089286 -0.714286,2.142857 0,-44.1964284 8.660715,0.8035715 12.857143,3.3035719 z"
       style="cursor:pointer;fill:#000000;fill-rule:evenodd;stroke:#000000;stroke-width:1px;stroke-linecap:butt;stroke-linejoin:miter;stroke-opacity:0;fill-opacity:0"
       sodipodi:nodetypes="cccccccccccccc"
       inkscape:label="#path8126" />
    <path
       onclick="top.notify(evt)"
       style="cursor:pointer;fill:#000000;fill-rule:evenodd;stroke:#000000;stroke-width:1px;stroke-linecap:butt;stroke-linejoin:miter;stroke-opacity:0;fill-opacity:0"
       d="m 49.464285,23.920885 -13.124999,7.410714 -9.196429,11.964286 -3.928571,11.875 0,3.035714 50.178571,0 L 74.107142,46.867314 72.142857,36.420885 66.875,25.260171 61.428571,22.938742 50.892857,23.474457 49.107143,24.010171"
       id="R_TZa"
       inkscape:connector-curvature="0"
       inkscape:label="#path8128" />
    <path
       onclick="top.notify(evt)"
       style="cursor:pointer;fill:#000000;fill-rule:evenodd;stroke:#000000;stroke-width:1px;stroke-linecap:butt;stroke-linejoin:miter;stroke-opacity:0;fill-opacity:0"
       d="m 96.696428,23.028028 -5.892857,2.5 -4.375,4.017857 -3.660714,7.142857 -1.964286,7.321429 -0.267857,11.785714 0.625,2.053571 49.464286,0 c 0,0 -0.80357,-4.910714 -0.98214,-5.535714 -0.17858,-0.625 -3.30357,-10.178571 -3.30357,-10.178571 l -9.01786,-11.25 -9.10714,-5.714286 -7.32143,-3.125 z"
       id="L_TZa"
       inkscape:connector-curvature="0"
       inkscape:label="#path8130" />
    <path
       onclick="top.notify(evt)"
       style="cursor:pointer;fill:#000000;fill-rule:evenodd;stroke:#000000;stroke-width:1px;stroke-linecap:butt;stroke-linejoin:miter;stroke-opacity:0;fill-opacity:0"
       d="m 81.127876,60.117066 49.308074,0 c 0,0 0,0.441941 0.0631,0.883883 0.0631,0.441942 -0.69448,7.323606 -0.69448,7.323606 l -2.27284,7.891817 -4.98763,6.187184 -7.19734,4.04061 -6.9448,1.262691 -7.3236,-0.820749 -7.386742,-4.166879 -6.313453,-6.313454 -5.745243,-12.81631 z"
       id="L_TZp"
       inkscape:connector-curvature="0"
       inkscape:label="#path8132" />
    <path
       onclick="top.notify(evt)"
       style="cursor:pointer;fill:#000000;fill-rule:evenodd;stroke:#000000;stroke-width:1px;stroke-linecap:butt;stroke-linejoin:miter;stroke-opacity:0;fill-opacity:0"
       d="m 22.854701,60.117066 50.760165,0 -0.883883,4.608821 -4.545687,11.174812 -5.366435,6.250319 -7.702413,4.924493 -12.753176,1.578364 -9.533314,-5.618974 -5.997781,-7.260471 -3.598669,-10.922274 z"
       id="R_TZp"
       inkscape:connector-curvature="0"
       inkscape:label="#path8134" />
    <path
       onclick="top.notify(evt)"
       style="cursor:pointer;fill:#000000;fill-rule:evenodd;stroke:#000000;stroke-width:1px;stroke-linecap:butt;stroke-linejoin:miter;stroke-opacity:0;fill-opacity:0"
       d="m 133.66071,61.242313 18.57143,7.857143 -0.17857,8.660715 -0.80357,9.017857 -4.55357,11.785714 -6.51786,7.232138 -9.28571,6.51786 -9.46429,4.55357 z"
       id="L_PZpl"
       inkscape:connector-curvature="0"
       inkscape:label="#path8138" />
    <path
       onclick="top.notify(evt)"
       style="cursor:pointer;fill:#000000;fill-rule:evenodd;stroke:#000000;stroke-width:1px;stroke-linecap:butt;stroke-linejoin:miter;stroke-opacity:0;fill-opacity:0"
       d="m 128.1631,78.362946 -8.33376,38.764604 -11.49048,4.54569 -16.414979,1.76776 -13.384521,-0.75761 -0.757615,-45.330597 3.788072,1.38896 4.040611,4.04061 5.177031,4.04061 1.262691,-1.894036 5.934646,3.030458 11.111674,2.525381 6.69226,-1.26269 7.19734,-3.409265 z"
       id="L_PZpm"
       inkscape:connector-curvature="0"
       inkscape:label="#path8140" />
    <path
       onclick="top.notify(evt)"
       inkscape:connector-curvature="0"
       id="R_PZpl"
       d="m 19.968555,61.242313 -18.5714299,7.857143 0.17857,8.660715 0.80357,9.017857 4.55357,11.785714 6.5178599,7.232138 9.28571,6.51786 9.46429,4.55357 z"
       style="cursor:pointer;fill:#000000;fill-rule:evenodd;stroke:#000000;stroke-width:1px;stroke-linecap:butt;stroke-linejoin:miter;stroke-opacity:0;fill-opacity:0"
       inkscape:label="#path8142" />
    <path
       onclick="top.notify(evt)"
       inkscape:connector-curvature="0"
       id="R_PZpm"
       d="m 25.735611,78.362946 8.33376,38.764604 11.49048,4.54569 16.414983,1.76776 13.38452,-0.75761 0.75761,-45.330597 -3.78807,1.38896 -4.04061,4.04061 -5.17703,4.04061 -1.26269,-1.894036 -5.93465,3.030458 -11.111673,2.525381 -6.69226,-1.26269 -7.19734,-3.409265 z"
       style="cursor:pointer;fill:#000000;fill-rule:evenodd;stroke:#000000;stroke-width:1px;stroke-linecap:butt;stroke-linejoin:miter;stroke-opacity:0;fill-opacity:0"
       inkscape:label="#path8144" />
  </g>
</svg>
