<svg xmlns="http://www.w3.org/2000/svg" xmlns:xlink="http://www.w3.org/1999/xlink">

  <symbol id="icon-segmentation-menu" viewBox="0 0 18 18">
    <title>Segmentation Menu</title>
    <g id="icon-segmentation-menu" fill="none" stroke-width="1.5" stroke-linecap="round" stroke-linejoin="round">
      <path d="M2.81 2.81L2.81 3.38L2.81 4.5L3.94 4.5L3.94 5.63L5.06 5.63L5.06 6.75L3.94 6.75L3.94 8.44L2.25 8.44L2.25 10.69L3.94 10.69L3.94 13.5L7.31 13.5L7.31 16.31L11.25 16.42L11.25 14.06L15.75 14.06L15.75 10.69L12.38 10.69L12.38 9L10.13 9L10.13 7.31L11.25 7.31L11.25 5.63L12.38 5.63L12.38 3.94L11.25 3.94L11.25 2.81L9.56 2.81L9.56 1.69L2.81 1.69L2.81 2.81Z" id="e30R35GvZV"></path>
    </g>
  </symbol>

  <symbol id="icon-seg-management-menu" viewBox="0 0 18 18">
    <title>Seg Management Menu</title>
    <g id="icon-seg-management-menu" fill="none" stroke-width="1.5" stroke-linecap="round" stroke-linejoin="round">
      <path d="M0.56 1.69L0.56 3.94L1.13 3.94L1.13 5.63L2.81 5.63L2.81 4.5L3.94 4.5L3.94 3.38L5.06 3.38L5.06 2.25L3.94 2.25L3.94 1.13L2.81 1.13L2.81 0.56L1.13 0.56L1.14 1.69L0.56 1.69Z" id="fe5Z9POHc"></path>
      <path d="M5.63 6.75L7.88 6.75L7.88 7.88L10.69 7.88L10.69 6.19L11.81 6.19L11.81 5.06L13.5 5.06L13.5 3.38L11.25 3.38L11.25 1.13L9 1.13L9 3.38L6.75 3.38L6.75 5.06L5.63 5.06L5.63 6.19L5.63 6.75Z" id="a3XPKFH8N"></path>
      <path d="M0.56 9.56L0.56 12.94L2.25 12.94L2.25 15.75L5.06 15.75L5.06 16.88L8.44 16.88L8.44 16.31L10.13 16.31L10.13 15.19L8.44 15.19L8.44 14.06L5.63 14.06L5.63 11.81L5.63 10.69L6.75 10.69L6.75 9L4.5 9L4.5 7.88L2.81 7.88L2.81 8.44L1.69 8.44L1.69 9.56L0.56 9.56Z" id="bShHj7KOZ"></path>
      <path d="M10.79 9.56L10.79 9L15.29 9L15.29 10.13L17.54 10.13L17.54 12.38L16.41 12.38L16.41 14.63L13.6 14.63L13.6 12.94L7.98 12.94L7.98 11.81L9.1 11.81L9.1 9.56L10.79 9.56Z" id="bHas4Cjjb"></path>
      <path d="M14.06 6.19L15.19 6.19L15.19 3.38L15.19 1.69L16.88 1.69L16.88 2.81L17.44 2.81L17.44 6.19L16.88 6.19L16.88 7.31L14.06 7.31L14.06 6.86L14.06 6.19Z" id="bxtFYpMxQ"></path>
    </g>
  </symbol>

  <symbol id="icon-brush-regular" viewBox="0 0 1792 1792">
    <title>Paint Brush Regular</title>
    <g id="icon-paint-brush-regular" stroke-width="1.5" stroke-linecap="round" stroke-linejoin="round">
      <path d="M1054.06 832.53L1097.41 868L1144.69 892.96L1184.1 906.09L1186.73 931.05L1185.41 1016.43L1170.97 1082.11L1152.58 1125.46L1124.99 1170.12L1088.21 1210.84L1034.35 1254.19L972.62 1283.09L906.94 1298.85L837.32 1304.1L772.96 1298.85L707.28 1280.46L650.79 1252.87L600.88 1212.15L556.22 1153.04L524.69 1087.37L507.62 1026.94L495.79 967.83L491.85 890.33L560.16 938.93L616.64 974.4L648.17 980.97L670.5 970.46L683.63 945.5L705.96 900.84L726.98 862.75L766.39 820.71L803.17 797.07L867.53 773.42L942.41 761.6L1000.2 757.66L1021.22 793.13L1054.06 832.53ZM1729.52 38.5L1755.65 61.5L1774.47 92.86L1779.7 134.67L1774.47 169.17L1764.01 207.85L1745.2 245.48L1685.61 356.29L1617.66 478.6L1565.39 566.41L1528.8 627.05L1489.08 688.72L1462.95 722.18L1429.49 765.04L1400.22 794.31L1361.54 820.44L1328.09 836.12L1294.64 844.49L1261.19 848.67L1236.1 848.67L1208.92 843.44L1178.6 832.99L1150.38 820.44L1124.24 803.72L1099.15 779.67L1076.15 754.58L1056.29 721.13L1044.79 689.77L1037.48 658.41L1035.38 633.32L1036.43 609.28L1036.43 580L1044.79 554.92L1051.07 537.14L1065.7 511.01L1090.79 480.69L1565.39 46.86L1607.21 22.82L1638.57 15.5L1674.11 15.5L1704.43 24.91L1729.52 38.5Z" id="a3lVDMEwvN">
      </path>
      <path d="M828.23 1488.03C828.23 1613.2 649.68 1714.83 429.75 1714.83C209.83 1714.83 31.28 1613.2 31.28 1488.03C31.28 1362.85 209.83 1261.23 429.75 1261.23C649.68 1261.23 828.23 1362.85 828.23 1488.03Z" id="a2fEcgCYen"></path>
    </g>
  </symbol>

  <symbol id="icon-brush-smart" viewBox="0 0 1792 1792">
    <title>Paint Brush Smart</title>
    <g id="icon-paint-brush-smart" stroke-width="1.5" stroke-linecap="round" stroke-linejoin="round">
      <path d="M1054.06 832.53L1097.41 868L1144.69 892.96L1184.1 906.09L1186.73 931.05L1185.41 1016.43L1170.97 1082.11L1152.58 1125.46L1124.99 1170.12L1088.21 1210.84L1034.35 1254.19L972.62 1283.09L906.94 1298.85L837.32 1304.1L772.96 1298.85L707.28 1280.46L650.79 1252.87L600.88 1212.15L556.22 1153.04L524.69 1087.37L507.62 1026.94L495.79 967.83L491.85 890.33L560.16 938.93L616.64 974.4L648.17 980.97L670.5 970.46L683.63 945.5L705.96 900.84L726.98 862.75L766.39 820.71L803.17 797.07L867.53 773.42L942.41 761.6L1000.2 757.66L1021.22 793.13L1054.06 832.53ZM1729.52 38.5L1755.65 61.5L1774.47 92.86L1779.7 134.67L1774.47 169.17L1764.01 207.85L1745.2 245.48L1685.61 356.29L1617.66 478.6L1565.39 566.41L1528.8 627.05L1489.08 688.72L1462.95 722.18L1429.49 765.04L1400.22 794.31L1361.54 820.44L1328.09 836.12L1294.64 844.49L1261.19 848.67L1236.1 848.67L1208.92 843.44L1178.6 832.99L1150.38 820.44L1124.24 803.72L1099.15 779.67L1076.15 754.58L1056.29 721.13L1044.79 689.77L1037.48 658.41L1035.38 633.32L1036.43 609.28L1036.43 580L1044.79 554.92L1051.07 537.14L1065.7 511.01L1090.79 480.69L1565.39 46.86L1607.21 22.82L1638.57 15.5L1674.11 15.5L1704.43 24.91L1729.52 38.5Z" id="a3lVDMEwvN">
      </path>
      <path d="M242.33 1286.43L267.53 1333.68L289.58 1371.48L358.88 1421.88L443.93 1437.63L525.83 1450.23L604.58 1465.98L664.43 1484.88L708.53 1516.38L796.73 1588.83L724.28 1645.53L639.23 1683.33L535.28 1708.53L503.78 1651.83L462.83 1614.03L390.38 1588.83L308.48 1576.23L229.73 1538.43L150.98 1462.83L94.28 1368.33L242.33 1286.43Z" id="c2AaWC2iuX"></path>
    </g>
  </symbol>

  <symbol id="icon-brush-auto" viewBox="0 0 1792 1792">
    <title>Paint Brush Auto</title>
    <g id="icon-paint-brush-auto" stroke-width="1.5" stroke-linecap="round" stroke-linejoin="round">
      <path d="M1054.06 832.53L1097.41 868L1144.69 892.96L1184.1 906.09L1186.73 931.05L1185.41 1016.43L1170.97 1082.11L1152.58 1125.46L1124.99 1170.12L1088.21 1210.84L1034.35 1254.19L972.62 1283.09L906.94 1298.85L837.32 1304.1L772.96 1298.85L707.28 1280.46L650.79 1252.87L600.88 1212.15L556.22 1153.04L524.69 1087.37L507.62 1026.94L495.79 967.83L491.85 890.33L560.16 938.93L616.64 974.4L648.17 980.97L670.5 970.46L683.63 945.5L705.96 900.84L726.98 862.75L766.39 820.71L803.17 797.07L867.53 773.42L942.41 761.6L1000.2 757.66L1021.22 793.13L1054.06 832.53ZM1729.52 38.5L1755.65 61.5L1774.47 92.86L1779.7 134.67L1774.47 169.17L1764.01 207.85L1745.2 245.48L1685.61 356.29L1617.66 478.6L1565.39 566.41L1528.8 627.05L1489.08 688.72L1462.95 722.18L1429.49 765.04L1400.22 794.31L1361.54 820.44L1328.09 836.12L1294.64 844.49L1261.19 848.67L1236.1 848.67L1208.92 843.44L1178.6 832.99L1150.38 820.44L1124.24 803.72L1099.15 779.67L1076.15 754.58L1056.29 721.13L1044.79 689.77L1037.48 658.41L1035.38 633.32L1036.43 609.28L1036.43 580L1044.79 554.92L1051.07 537.14L1065.7 511.01L1090.79 480.69L1565.39 46.86L1607.21 22.82L1638.57 15.5L1674.11 15.5L1704.43 24.91L1729.52 38.5Z" id="a3lVDMEwvN">
      </path>
      <path d="M242.33 1286.43L267.53 1333.68L289.58 1371.48L358.88 1421.88L443.93 1437.63L525.83 1450.23L604.58 1465.98L664.43 1484.88L708.53 1516.38L796.73 1588.83L724.28 1645.53L639.23 1683.33L535.28 1708.53L503.78 1651.83L462.83 1614.03L390.38 1588.83L308.48 1576.23L229.73 1538.43L150.98 1462.83L94.28 1368.33L242.33 1286.43Z" id="c2AaWC2iuX"></path>
      <path d="M422.72 675.21L589.19 781.32L405.06 844.33L357.19 1029.95L235.03 876.36L38.97 885L147.61 727.06L74.29 546.78L263.62 602.74L414.35 482.69L422.72 675.21Z" id="b27nmoGqLj"></path>
      <path d="M798.83 109.05L976.37 22.74L933.68 212.62L1066.79 350.56L871.97 374.26L776.71 545.84L699.01 370.6L507.01 338.71L653.79 206.68L630.4 15.41L798.83 109.05Z" id="dwiYAHDlJ"></path>
      <path d="M1495.63 1392.15L1665.82 1492.19L1484.08 1561.8L1442.95 1749.03L1315.32 1599.94L1119.7 1615.65L1222.57 1453.9L1142.79 1276.37L1334.02 1325.47L1480.31 1200.06L1495.63 1392.15Z" id="axtuVhQ3H"></path>
    </g>
  </symbol>

  <symbol id="icon-brush-settings" viewBox="0 0 1792 1792">
    <title>Paint Brush Settings</title>
    <g id="icon-paint-brush-settings" stroke-width="1.5" stroke-linecap="round" stroke-linejoin="round">
      <path d="M434.83 577.54L463.36 600.88L494.48 617.3L520.41 625.95L522.14 642.37L521.28 698.56L511.77 741.79L499.66 770.32L481.51 799.71L457.3 826.51L421.86 855.04L381.23 874.06L338.01 884.43L292.19 887.89L249.83 884.43L206.6 872.33L169.43 854.17L136.58 827.37L107.19 788.47L86.44 745.25L75.2 705.48L67.42 666.58L64.83 615.57L109.78 647.56L146.95 670.9L167.7 675.22L182.4 668.31L191.04 651.88L205.74 622.49L219.57 597.42L245.5 569.75L269.71 554.19L312.07 538.63L361.35 530.85L399.38 528.26L413.22 551.6L434.83 577.54ZM879.36 54.96L896.56 70.1L908.95 90.73L912.39 118.25L908.95 140.96L902.07 166.41L889.68 191.18L850.47 264.11L805.75 344.6L771.35 402.4L747.27 442.3L721.13 482.89L703.93 504.91L681.91 533.11L662.65 552.38L637.19 569.58L615.18 579.9L593.16 585.4L571.14 588.15L554.63 588.15L536.75 584.71L516.79 577.83L498.22 569.58L481.02 558.57L464.51 542.75L449.37 526.23L436.3 504.22L428.73 483.58L423.91 462.94L422.54 446.43L423.23 430.6L423.23 411.34L428.73 394.83L432.86 383.13L442.49 365.93L459 345.98L771.35 60.46L798.87 44.64L819.51 39.82L842.9 39.82L862.85 46.02L879.36 54.96Z" id="b2umynxPWq">
      </path>
      <path d="M938.79 722.79L950.79 792.79L974.79 801.79L997.79 812.79L1078.79 753.79L1090.79 748.79L1100.79 749.79L1131.79 781.79L1196.79 846.79L1200.79 860.79L1200.79 870.79L1137.79 950.79L1152.79 977.79L1159.79 1004.79L1261.79 1020.79L1270.79 1024.79L1278.79 1037.79L1278.79 1162.76L1274.79 1174.76L1265.79 1182.76L1159.79 1197.76L1150.79 1223.76L1139.79 1249.76L1194.79 1319.76L1202.79 1334.76L1202.79 1346.76L1187.79 1362.76L1108.79 1442.76L1096.79 1448.76L1085.79 1450.76L1073.79 1442.76L1000.79 1386.76L964.79 1402.76L948.79 1406.76L936.79 1501.76L929.79 1519.76L916.79 1526.76L783.79 1525.76L773.79 1517.76L768.79 1503.76L755.79 1408.76L730.79 1398.76L702.79 1386.76L627.79 1443.76L615.79 1451.76L600.79 1446.76L546.79 1394.76L505.79 1349.76L501.79 1338.76L506.79 1327.76L567.79 1250.76L553.79 1224.76L542.79 1194.76L440.79 1179.76L429.79 1171.76L425.79 1156.76L427.79 1033.76L431.79 1021.76L443.79 1016.76L544.79 1000.76L553.79 976.76L565.79 949.76L503.79 872.76L501.79 861.76L502.79 850.76L534.79 813.76L586.79 764.76L603.79 751.76L616.79 747.76L637.79 761.76L692.79 804.76L704.79 814.76L727.79 801.76L754.13 791.93L766.32 709.01L773.64 682.18L781.79 674.79L800.79 673.79L866.79 673.79L918.79 674.79L932.79 682.79L932.79 682.79L938.79 722.79ZM830.76 931.03L823.91 932L817.14 933.24L810.48 934.73L803.91 936.48L797.45 938.48L791.1 940.73L784.87 943.21L778.76 945.92L772.77 948.86L766.92 952.02L761.21 955.39L755.65 958.98L750.24 962.77L744.98 966.76L739.88 970.94L734.95 975.31L730.19 979.87L725.61 984.6L721.21 989.5L717.01 994.57L712.99 999.8L709.18 1005.18L705.57 1010.71L702.18 1016.39L699 1022.2L696.04 1028.15L693.31 1034.23L690.82 1040.42L688.56 1046.73L686.55 1053.16L684.79 1059.69L683.29 1066.32L682.04 1073.04L681.06 1079.85L680.36 1086.74L679.93 1093.72L679.79 1100.76L679.93 1107.8L680.36 1114.78L681.06 1121.67L682.04 1128.48L683.29 1135.2L684.79 1141.83L686.55 1148.36L688.56 1154.78L690.82 1161.1L693.31 1167.29L696.04 1173.37L699 1179.32L702.18 1185.13L705.57 1190.81L709.18 1196.34L712.99 1201.72L717.01 1206.95L721.21 1212.02L725.61 1216.92L730.19 1221.65L734.95 1226.2L739.88 1230.58L744.98 1234.76L750.24 1238.75L755.65 1242.54L761.21 1246.12L766.92 1249.5L772.77 1252.66L778.76 1255.6L784.87 1258.31L791.1 1260.79L797.45 1263.04L803.91 1265.04L810.48 1266.79L817.14 1268.28L823.91 1269.52L830.76 1270.49L837.69 1271.19L844.7 1271.62L851.79 1271.76L858.87 1271.62L865.89 1271.19L872.82 1270.49L879.67 1269.52L886.43 1268.28L893.1 1266.79L899.67 1265.04L906.13 1263.04L912.48 1260.79L918.71 1258.31L924.82 1255.6L930.8 1252.66L936.65 1249.5L942.36 1246.12L947.93 1242.54L953.34 1238.75L958.6 1234.76L963.7 1230.58L968.63 1226.2L973.39 1221.65L977.97 1216.92L982.36 1212.02L986.57 1206.95L990.58 1201.72L994.4 1196.34L998 1190.81L1001.4 1185.13L1004.58 1179.32L1007.54 1173.37L1010.26 1167.29L1012.76 1161.1L1015.01 1154.78L1017.03 1148.36L1018.79 1141.83L1020.29 1135.2L1021.54 1128.48L1022.51 1121.67L1023.22 1114.78L1023.65 1107.8L1023.79 1100.76L1023.65 1093.72L1023.22 1086.74L1022.51 1079.85L1021.54 1073.04L1020.29 1066.32L1018.79 1059.69L1017.03 1053.16L1015.01 1046.73L1012.76 1040.42L1010.26 1034.23L1007.54 1028.15L1004.58 1022.2L1001.4 1016.39L998 1010.71L994.4 1005.18L990.58 999.8L986.57 994.57L982.36 989.5L977.97 984.6L973.39 979.87L968.63 975.31L963.7 970.94L958.6 966.76L953.34 962.77L947.93 958.98L942.36 955.39L936.65 952.02L930.8 948.86L924.82 945.92L918.71 943.21L912.48 940.73L906.13 938.48L899.67 936.48L893.1 934.73L886.43 933.24L879.67 932L872.82 931.03L865.89 930.33L858.87 929.9L851.79 929.76L844.7 929.9L837.69 930.33L837.69 930.33L830.76 931.03Z" id="ddBZYqZz0">
      </path>
      <path d="M1619.45 566.06L1615.4 582.25L1599.8 625.02L1585.53 655.99L1596.36 674.47L1605.28 692.94L1644.77 696.12L1685.53 703.76L1702.09 708.86L1704.64 715.87L1704 761.73L1704 806.31L1699.54 811.41L1653.68 820.96L1605.28 826.69L1597.63 841.34L1585.53 860.45L1604.64 906.95L1617.38 936.89L1619.53 949.09L1618.02 955.48L1613.14 959.62L1541.33 1001.35L1533.44 1005.48L1527.42 1002.1L1497.72 967.51L1477.05 939.69L1468.78 927.66L1449.98 929.54L1429.3 928.42L1415.77 946.09L1393.59 973.53L1375.92 994.58L1366.52 1002.85L1362.01 1003.98L1351.86 999.47L1281.18 957.74L1277.8 953.98L1279.3 946.46L1286.82 921.65L1299.6 890.82L1312.76 862.25L1300.34 844.89L1291.81 827.04L1239.31 820.27L1199.09 812L1193.07 808.24L1192.32 803.73L1192.32 716.14L1193.45 711.63L1197.96 707.11L1232.55 698.84L1270.14 694.33L1293.45 692.45L1300.22 675.91L1308.11 663.88L1313.37 657.49L1295.71 621.02L1281.04 580.05L1278.04 569.99L1278.79 564.73L1281.3 559.71L1354.71 517.51L1364.54 514.62L1383.61 531.38L1407.89 562.02L1429.28 590.92L1449.51 588.61L1469.74 590.34L1498.64 550.46L1521.18 524.45L1531.01 515.77L1536.21 514.62L1615.4 559.71L1619.45 566.06ZM1441.35 674.37L1437.9 674.72L1434.5 675.21L1431.14 675.83L1427.82 676.58L1424.55 677.46L1421.34 678.47L1418.18 679.59L1415.09 680.84L1412.05 682.2L1409.07 683.68L1406.16 685.27L1403.33 686.96L1400.56 688.76L1397.87 690.67L1395.25 692.67L1392.72 694.77L1390.26 696.97L1387.9 699.26L1385.62 701.63L1383.43 704.1L1381.34 706.64L1379.35 709.27L1377.45 711.97L1375.66 714.75L1373.97 717.6L1372.39 720.52L1370.92 723.51L1369.56 726.56L1368.32 729.68L1367.2 732.85L1366.2 736.07L1365.32 739.35L1364.58 742.68L1363.96 746.06L1363.47 749.48L1363.12 752.95L1362.91 756.45L1362.84 759.99L1362.91 763.53L1363.12 767.03L1363.47 770.49L1363.96 773.91L1364.58 777.29L1365.32 780.62L1366.2 783.9L1367.2 787.13L1368.32 790.3L1369.56 793.41L1370.92 796.46L1372.39 799.45L1373.97 802.37L1375.66 805.22L1377.45 808L1379.35 810.71L1381.34 813.33L1383.43 815.88L1385.62 818.34L1387.9 820.72L1390.26 823.01L1392.72 825.2L1395.25 827.3L1397.87 829.31L1400.56 831.21L1403.33 833.01L1406.16 834.71L1409.07 836.3L1412.05 837.77L1415.09 839.13L1418.18 840.38L1421.34 841.51L1424.55 842.51L1427.82 843.39L1431.14 844.14L1434.5 844.76L1437.9 845.25L1441.35 845.6L1444.84 845.82L1448.36 845.89L1451.89 845.82L1455.37 845.6L1458.82 845.25L1462.23 844.76L1465.59 844.14L1468.91 843.39L1472.17 842.51L1475.38 841.51L1478.54 840.38L1481.64 839.13L1484.68 837.77L1487.65 836.3L1490.56 834.71L1493.4 833.01L1496.17 831.21L1498.86 829.31L1501.47 827.3L1504.01 825.2L1506.46 823.01L1508.83 820.72L1511.1 818.34L1513.29 815.88L1515.38 813.33L1517.38 810.71L1519.27 808L1521.07 805.22L1522.76 802.37L1524.34 799.45L1525.81 796.46L1527.16 793.41L1528.4 790.3L1529.53 787.13L1530.53 783.9L1531.4 780.62L1532.15 777.29L1532.77 773.91L1533.25 770.49L1533.61 767.03L1533.82 763.53L1533.89 759.99L1533.82 756.45L1533.61 752.95L1533.25 749.48L1532.77 746.06L1532.15 742.68L1531.4 739.35L1530.53 736.07L1529.53 732.85L1528.4 729.68L1527.16 726.56L1525.81 723.51L1524.34 720.52L1522.76 717.6L1521.07 714.75L1519.27 711.97L1517.38 709.27L1515.38 706.64L1513.29 704.1L1511.1 701.63L1508.83 699.26L1506.46 696.97L1504.01 694.77L1501.47 692.67L1498.86 690.67L1496.17 688.76L1493.4 686.96L1490.56 685.27L1487.65 683.68L1484.68 682.2L1481.64 680.84L1478.54 679.59L1475.38 678.47L1472.17 677.46L1468.91 676.58L1465.59 675.83L1462.23 675.21L1458.82 674.72L1455.37 674.37L1451.89 674.16L1448.36 674.09L1444.84 674.16L1441.35 674.37Z" id="b1Rdz9eKOh">
      </path>
      <path d="M1622.45 1319.06L1618.4 1335.25L1602.8 1378.02L1588.53 1408.99L1599.36 1427.47L1608.28 1445.94L1647.77 1449.12L1688.53 1456.76L1705.09 1461.86L1707.64 1468.87L1707 1514.73L1707 1559.31L1702.54 1564.41L1656.68 1573.96L1608.28 1579.69L1600.63 1594.34L1588.53 1613.45L1607.64 1659.95L1620.38 1689.89L1622.53 1702.09L1621.02 1708.48L1616.14 1712.62L1544.33 1754.35L1536.44 1758.48L1530.42 1755.1L1500.72 1720.51L1480.05 1692.69L1471.78 1680.66L1452.98 1682.54L1432.3 1681.42L1418.77 1699.09L1396.59 1726.53L1378.92 1747.58L1369.52 1755.85L1365.01 1756.98L1354.86 1752.47L1284.18 1710.74L1280.8 1706.98L1282.3 1699.46L1289.82 1674.65L1302.6 1643.82L1315.76 1615.25L1303.34 1597.89L1294.81 1580.04L1242.31 1573.27L1202.09 1565L1196.07 1561.24L1195.32 1556.73L1195.32 1469.14L1196.45 1464.63L1200.96 1460.11L1235.55 1451.84L1273.14 1447.33L1296.45 1445.45L1303.22 1428.91L1311.11 1416.88L1316.37 1410.49L1298.71 1374.02L1284.04 1333.05L1281.04 1322.99L1281.79 1317.73L1284.3 1312.71L1357.71 1270.51L1367.54 1267.62L1386.61 1284.38L1410.89 1315.02L1432.28 1343.92L1452.51 1341.61L1472.74 1343.34L1501.64 1303.46L1524.18 1277.45L1534.01 1268.77L1539.21 1267.62L1618.4 1312.71L1622.45 1319.06ZM1444.35 1427.37L1440.9 1427.72L1437.5 1428.21L1434.14 1428.83L1430.82 1429.58L1427.55 1430.46L1424.34 1431.47L1421.18 1432.59L1418.09 1433.84L1415.05 1435.2L1412.07 1436.68L1409.16 1438.27L1406.33 1439.96L1403.56 1441.76L1400.87 1443.67L1398.25 1445.67L1395.72 1447.77L1393.26 1449.97L1390.9 1452.26L1388.62 1454.63L1386.43 1457.1L1384.34 1459.64L1382.35 1462.27L1380.45 1464.97L1378.66 1467.75L1376.97 1470.6L1375.39 1473.52L1373.92 1476.51L1372.56 1479.56L1371.32 1482.68L1370.2 1485.85L1369.2 1489.07L1368.32 1492.35L1367.58 1495.68L1366.96 1499.06L1366.47 1502.48L1366.12 1505.95L1365.91 1509.45L1365.84 1512.99L1365.91 1516.53L1366.12 1520.03L1366.47 1523.49L1366.96 1526.91L1367.58 1530.29L1368.32 1533.62L1369.2 1536.9L1370.2 1540.13L1371.32 1543.3L1372.56 1546.41L1373.92 1549.46L1375.39 1552.45L1376.97 1555.37L1378.66 1558.22L1380.45 1561L1382.35 1563.71L1384.34 1566.33L1386.43 1568.88L1388.62 1571.34L1390.9 1573.72L1393.26 1576.01L1395.72 1578.2L1398.25 1580.3L1400.87 1582.31L1403.56 1584.21L1406.33 1586.01L1409.16 1587.71L1412.07 1589.3L1415.05 1590.77L1418.09 1592.13L1421.18 1593.38L1424.34 1594.51L1427.55 1595.51L1430.82 1596.39L1434.14 1597.14L1437.5 1597.76L1440.9 1598.25L1444.35 1598.6L1447.84 1598.82L1451.36 1598.89L1454.89 1598.82L1458.37 1598.6L1461.82 1598.25L1465.23 1597.76L1468.59 1597.14L1471.91 1596.39L1475.17 1595.51L1478.38 1594.51L1481.54 1593.38L1484.64 1592.13L1487.68 1590.77L1490.65 1589.3L1493.56 1587.71L1496.4 1586.01L1499.17 1584.21L1501.86 1582.31L1504.47 1580.3L1507.01 1578.2L1509.46 1576.01L1511.83 1573.72L1514.1 1571.34L1516.29 1568.88L1518.38 1566.33L1520.38 1563.71L1522.27 1561L1524.07 1558.22L1525.76 1555.37L1527.34 1552.45L1528.81 1549.46L1530.16 1546.41L1531.4 1543.3L1532.53 1540.13L1533.53 1536.9L1534.4 1533.62L1535.15 1530.29L1535.77 1526.91L1536.25 1523.49L1536.61 1520.03L1536.82 1516.53L1536.89 1512.99L1536.82 1509.45L1536.61 1505.95L1536.25 1502.48L1535.77 1499.06L1535.15 1495.68L1534.4 1492.35L1533.53 1489.07L1532.53 1485.85L1531.4 1482.68L1530.16 1479.56L1528.81 1476.51L1527.34 1473.52L1525.76 1470.6L1524.07 1467.75L1522.27 1464.97L1520.38 1462.27L1518.38 1459.64L1516.29 1457.1L1514.1 1454.63L1511.83 1452.26L1509.46 1449.97L1507.01 1447.77L1504.47 1445.67L1501.86 1443.67L1499.17 1441.76L1496.4 1439.96L1493.56 1438.27L1490.65 1436.68L1487.68 1435.2L1484.64 1433.84L1481.54 1432.59L1478.38 1431.47L1475.17 1430.46L1471.91 1429.58L1468.59 1428.83L1465.23 1428.21L1461.82 1427.72L1458.37 1427.37L1454.89 1427.16L1451.36 1427.09L1447.84 1427.16L1444.35 1427.37Z" id="c1qgQAIJ6m">
      </path>
    </g>
  </symbol>

  <symbol id="icon-freehand-interpolate-off" viewBox="0 0 48 48">
    <title>Freehand Interpolate Off</title>
    <g id="icon-freehand-interpolate-on-group" fill="none" stroke-width="2" stroke-linecap="round" stroke-linejoin="round" stroke="#ffffff">
      <path d="M38.9 42.11C38.9 44.55 32.22 46.54 24 46.54C15.78 46.54 9.1 44.55 9.1 42.11C9.1 39.67 15.78 37.69 24 37.69C32.22 37.69 38.9 39.67 38.9 42.11Z" id="bNF26vkaV"></path>
      <path d="M46.02 7.14C46.71 7.85 47.08 8.6 47.08 9.38C47.08 13.47 36.74 16.79 24 16.79C11.26 16.79 0.92 13.47 0.92 9.38C0.92 5.29 11.26 1.96 24 1.96C34.32 1.96 43.07 4.14 46.02 7.14Z" id="b5V5kkXTMV"></path>
    </g>
  </symbol>

  <symbol id="icon-freehand-interpolate-on" viewBox="0 0 48 48">
    <title>Freehand Interpolate On</title>
    <g id="icon-freehand-interpolate-on-group" fill="none" stroke-width="2" stroke-linecap="round" stroke-linejoin="round" stroke="#32cd32">
      <path d="M38.9 42.11C38.9 44.55 32.22 46.54 24 46.54C15.78 46.54 9.1 44.55 9.1 42.11C9.1 39.67 15.78 37.69 24 37.69C32.22 37.69 38.9 39.67 38.9 42.11Z" id="bNF26vkaV"></path>
      <path stroke-dasharray="5,5" d="M45 19.06C45 22.07 35.59 24.52 24 24.52C12.41 24.52 3 22.07 3 19.06C3 16.05 12.41 13.6 24 13.6C35.59 13.6 45 16.05 45 19.06Z" id="elwIAZroH"></path>
      <path stroke-dasharray="5,5" d="M41.66 33.91C41.66 36.92 33.75 39.37 24 39.37C14.25 39.37 6.34 36.92 6.34 33.91C6.34 30.9 14.25 28.45 24 28.45C33.75 28.45 41.66 30.9 41.66 33.91Z" id="hYYgIuISI"></path>
      <path stroke-dasharray="5,5" d="M43.8 26.9C43.8 29.92 34.93 32.36 24 32.36C13.07 32.36 4.2 29.92 4.2 26.9C4.2 23.89 13.07 21.45 24 21.45C34.93 21.45 43.8 23.89 43.8 26.9Z" id="c1KhlsDw7D"></path>
      <path d="M46.02 7.14C46.71 7.85 47.08 8.6 47.08 9.38C47.08 13.47 36.74 16.79 24 16.79C11.26 16.79 0.92 13.47 0.92 9.38C0.92 5.29 11.26 1.96 24 1.96C34.32 1.96 43.07 4.14 46.02 7.14Z" id="b5V5kkXTMV"></path>
    </g>
  </symbol>

  <symbol id="icon-freehand-interpolate-on-no-highlight" viewBox="0 0 48 48">
    <title>Freehand Interpolate On No Highlight</title>
    <g id="icon-freehand-interpolate-on-group" fill="none" stroke-width="2" stroke-linecap="round" stroke-linejoin="round">
      <path d="M38.9 42.11C38.9 44.55 32.22 46.54 24 46.54C15.78 46.54 9.1 44.55 9.1 42.11C9.1 39.67 15.78 37.69 24 37.69C32.22 37.69 38.9 39.67 38.9 42.11Z" id="bNF26vkaV"></path>
      <path stroke-dasharray="5,5" d="M45 19.06C45 22.07 35.59 24.52 24 24.52C12.41 24.52 3 22.07 3 19.06C3 16.05 12.41 13.6 24 13.6C35.59 13.6 45 16.05 45 19.06Z" id="elwIAZroH"></path>
      <path stroke-dasharray="5,5" d="M41.66 33.91C41.66 36.92 33.75 39.37 24 39.37C14.25 39.37 6.34 36.92 6.34 33.91C6.34 30.9 14.25 28.45 24 28.45C33.75 28.45 41.66 30.9 41.66 33.91Z" id="hYYgIuISI"></path>
      <path stroke-dasharray="5,5" d="M43.8 26.9C43.8 29.92 34.93 32.36 24 32.36C13.07 32.36 4.2 29.92 4.2 26.9C4.2 23.89 13.07 21.45 24 21.45C34.93 21.45 43.8 23.89 43.8 26.9Z" id="c1KhlsDw7D"></path>
      <path d="M46.02 7.14C46.71 7.85 47.08 8.6 47.08 9.38C47.08 13.47 36.74 16.79 24 16.79C11.26 16.79 0.92 13.47 0.92 9.38C0.92 5.29 11.26 1.96 24 1.96C34.32 1.96 43.07 4.14 46.02 7.14Z" id="b5V5kkXTMV"></path>
    </g>
  </symbol>

  <symbol id="icon-freehand-stats-off" viewBox="0 0 1792 1792">
    <title>Freehand Stats Off</title>
    <g id="icon-freehand-stats-on-group" stroke-width="3" stroke-linecap="round" stroke-linejoin="round" fill="#ffffff">
      <path id="fa-comment-o" d="M896 384q-204 0-381.5 69.5t-282 187.5-104.5 255q0 112 71.5 213.5t201.5 175.5l87 50-27 96q-24 91-70 172 152-63 275-171l43-38 57 6q69 8 130 8 204 0 381.5-69.5t282-187.5 104.5-255-104.5-255-282-187.5-381.5-69.5zm896 512q0 174-120 321.5t-326 233-450 85.5q-70 0-145-8-198 175-460 242-49 14-114 22h-5q-15 0-27-10.5t-16-27.5v-1q-3-4-.5-12t2-10 4.5-9.5l6-9 7-8.5 8-9q7-8 31-34.5t34.5-38 31-39.5 32.5-51 27-59 26-76q-157-89-247.5-220t-90.5-281q0-174 120-321.5t326-233 450-85.5 450 85.5 326 233 120 321.5z"/>
    </g>
  </symbol>

  <symbol id="icon-freehand-stats-on" viewBox="0 0 1792 1792">
    <title>Freehand Stats On</title>
    <g id="icon-freehand-stats-on-group" fill="#32cd32">
      <path id="fa-commenting" d="M640 896q0-53-37.5-90.5t-90.5-37.5-90.5 37.5-37.5 90.5 37.5 90.5 90.5 37.5 90.5-37.5 37.5-90.5zm384 0q0-53-37.5-90.5t-90.5-37.5-90.5 37.5-37.5 90.5 37.5 90.5 90.5 37.5
        90.5-37.5 37.5-90.5zm384 0q0-53-37.5-90.5t-90.5-37.5-90.5 37.5-37.5 90.5 37.5 90.5 90.5 37.5 90.5-37.5 37.5-90.5zm384 0q0 174-120 321.5t-326 233-450 85.5q-110 0-211-18-173
        173-435 229-52 10-86 13-12 1-22-6t-13-18q-4-15 20-37 5-5 23.5-21.5t25.5-23.5 23.5-25.5 24-31.5 20.5-37 20-48 14.5-57.5 12.5-72.5q-146-90-229.5-216.5t-83.5-269.5q0-174
        120-321.5t326-233 450-85.5 450 85.5 326 233 120 321.5z"/>
    </g>
  </symbol>

  <symbol id="icon-freehand-menu" viewBox="0 0 18 18">
    <title>ROI Menu</title>
    <g id="icon-freehand-menu" fill="none" stroke-width="1.5" stroke-linecap="round" stroke-linejoin="round">
      <line id="svg_4" y2="9.12785" x2="2.045199" y1="2.602749" x1="5.482813"/>
      <line id="svg_5" y2="16.607843" x2="6.565024" y1="9.509807" x1="2.204347"/>
      <line id="svg_6" y2="16.003078" x2="14.267826" y1="16.576014" x1="6.692343"/>
      <line id="svg_7" y2="10.942146" x2="15.572846" y1="15.939418" x1="14.331486"/>
      <line id="svg_8" y2="2.825558" x2="13.058295" y1="2.889217" x1="5.641961"/>
      <line id="svg_9" y2="7.568192" x2="15.795655" y1="3.398493" x1="12.930976"/>
      <line id="svg_10" y2="11.037635" x2="15.509187" y1="7.727341" x1="15.700165"/>
    </g>
  </symbol>

  <symbol id="icon-freehand-switch-volume" viewBox="0 0 18 18">
    <title>ROI Management</title>
    <g id="icon-freehand-switch-volume" fill="none" stroke-width="1.5" stroke-linecap="round" stroke-linejoin="round">
      <line  id="svg_3" y2="2.395644" x2="3.640793" y1="3.172672" x1="2.178153" />
      <line  id="svg_8" y2="2.167107" x2="4.280699" y1="2.441352" x1="3.572232" />
      <line  id="svg_9" y2="2.167107" x2="4.737774" y1="2.167107" x1="4.16643" />
      <line  id="svg_10" y2="2.212814" x2="5.012019" y1="2.144253" x1="4.692066" />
      <line  id="svg_12" y2="2.418498" x2="5.400533" y1="2.167107" x1="4.806335" />
      <line  id="svg_14" y2="2.784158" x2="5.674778" y1="2.349937" x1="5.240557" />
      <line  id="svg_15" y2="3.332649" x2="5.880462" y1="2.692743" x1="5.583363" />
      <line  id="svg_16" y2="3.881139" x2="5.971877" y1="3.21838" x1="5.834754" />
      <line  id="svg_17" y2="4.452483" x2="5.926169" y1="3.789724" x1="5.949023" />
      <line  id="svg_19" y2="3.515479" x2="1.926761" y1="3.081257" x1="2.292422" />
      <line  id="svg_20" y2="4.018261" x2="1.721078" y1="3.40121" x1="2.018176" />
      <line  id="svg_21" y2="4.49819" x2="1.721078" y1="3.926846" x1="1.721078" />
      <line  id="svg_22" y2="4.909558" x2="1.903908" y1="4.406775" x1="1.67537" />
      <line  id="svg_23" y2="5.252364" x2="2.22386" y1="4.818143" x1="1.8582" />
      <line  id="svg_24" y2="5.480902" x2="2.749497" y1="5.183803" x1="2.086738" />
      <line  id="svg_26" y2="5.572317" x2="3.412256" y1="5.480902" x1="2.612374" />
      <line  id="svg_27" y2="5.549463" x2="4.120722" y1="5.572317" x1="3.25228" />
      <line  id="svg_28" y2="5.435195" x2="5.034873" y1="5.549463" x1="4.029307" />
      <line  id="svg_29" y2="5.275218" x2="5.423387" y1="5.435195" x1="4.966312" />
      <line  id="svg_30" y2="4.978119" x2="5.743339" y1="5.343779" x1="5.309118" />
      <line  id="svg_31" y2="4.31536" x2="5.949023" y1="5.115242" x1="5.697632" />
      <line  id="svg_32" y2="7.720571" x2="4.89775" y1="8.38333" x1="5.834754" />
      <line  id="svg_33" y2="7.583448" x2="4.440675" y1="7.743424" x1="4.943458" />
      <line  id="svg_34" y2="7.560594" x2="4.029307" y1="7.629156" x1="4.554944" />
      <line  id="svg_35" y2="7.674863" x2="3.457963" y1="7.514887" x1="4.189284" />
      <line  id="svg_36" y2="7.971962" x2="3.046596" y1="7.629156" x1="3.526525" />
      <line  id="svg_37" y2="8.429037" x2="2.635228" y1="7.857693" x1="3.138011" />
      <line  id="svg_38" y2="8.840405" x2="2.452398" y1="8.269061" x1="2.726643" />
      <line  id="svg_39" y2="9.388895" x2="2.429544" y1="8.657575" x1="2.520959" />
      <line  id="svg_40" y2="10.143069" x2="2.520959" y1="9.320334" x1="2.429544" />
      <line  id="svg_41" y2="10.828682" x2="2.795204" y1="10.097362" x1="2.498105" />
      <line  id="svg_42" y2="11.400026" x2="3.389402" y1="10.737267" x1="2.749497" />
      <line  id="svg_45" y2="11.857101" x2="3.595086" y1="11.24005" x1="3.297987" />
      <line  id="svg_46" y2="12.565568" x2="3.549378" y1="11.719979" x1="3.572232" />
      <line  id="svg_47" y2="13.228327" x2="3.320841" y1="12.474153" x1="3.549378" />
      <line  id="svg_48" y2="13.891086" x2="3.25228" y1="13.045497" x1="3.343695" />
      <line  id="svg_51" y2="14.508137" x2="3.366548" y1="13.685402" x1="3.229426" />
      <line  id="svg_52" y2="15.19375" x2="3.686501" y1="14.348161" x1="3.320841" />
      <line  id="svg_54" y2="15.582264" x2="4.120722" y1="15.079481" x1="3.61794" />
      <line  id="svg_55" y2="15.970778" x2="4.920604" y1="15.536556" x1="4.052161" />
      <line  id="svg_57" y2="16.016485" x2="5.469094" y1="15.902217" x1="4.737774" />
      <line  id="svg_58" y2="15.810802" x2="5.926169" y1="15.993632" x1="5.331972" />
      <line  id="svg_61" y2="15.445141" x2="6.360391" y1="15.902217" x1="5.766193" />
      <line  id="svg_62" y2="14.942359" x2="6.680344" y1="15.582264" x1="6.223268" />
      <line  id="svg_64" y2="14.371015" x2="6.84032" y1="15.148043" x1="6.566075" />
      <line  id="svg_66" y2="13.708256" x2="6.726051" y1="14.553845" x1="6.84032" />
      <line  id="svg_67" y2="12.816959" x2="6.428952" y1="14.028208" x1="6.794612" />
      <line  id="svg_70" y2="12.039931" x2="6.063292" y1="13.022643" x1="6.451806" />
      <line  id="svg_71" y2="11.194342" x2="5.903316" y1="12.085639" x1="6.063292" />
      <line  id="svg_72" y2="10.554437" x2="5.949023" y1="11.331465" x1="5.949023" />
      <line  id="svg_73" y2="9.891678" x2="6.131853" y1="10.691559" x1="5.926169" />
      <line  id="svg_74" y2="9.320334" x2="6.200415" y1="9.983093" x1="6.131853" />
      <line  id="svg_75" y2="8.74899" x2="6.063292" y1="9.548871" x1="6.223268" />
      <line  id="svg_76" y2="8.314768" x2="5.766193" y1="8.840405" x1="6.109" />
      <line  id="svg_78" y2="8.497598" x2="13.10225" y1="7.857693" x1="13.65074" />
      <line  id="svg_79" y2="9.183211" x2="12.942274" y1="8.360476" x1="13.170811" />
      <line  id="svg_80" y2="9.868824" x2="12.965127" y1="9.068942" x1="12.965127" />
      <line  id="svg_81" y2="10.508729" x2="13.193665" y1="9.777409" x1="12.965127" />
      <line  id="svg_82" y2="10.760121" x2="13.83357" y1="10.39446" x1="13.10225" />
      <line  id="svg_83" y2="10.805828" x2="14.610598" y1="10.714413" x1="13.673594" />
      <line  id="svg_88" y2="10.668706" x2="15.159088" y1="10.828682" x1="14.473476" />
      <line  id="svg_89" y2="10.348753" x2="15.501895" y1="10.714413" x1="15.067673" />
      <line  id="svg_91" y2="9.777409" x2="15.821847" y1="10.440168" x1="15.364772" />
      <line  id="svg_92" y2="9.11465" x2="15.936116" y1="9.960239" x1="15.798994" />
      <line  id="svg_93" y2="8.451891" x2="15.844701" y1="9.343187" x1="15.981824" />
      <line  id="svg_94" y2="7.834839" x2="15.501895" y1="8.657575" x1="15.936116" />
      <line  id="svg_101" y2="7.560594" x2="14.382061" y1="7.926254" x1="13.536471"  />
      <line  id="svg_102" y2="7.53774" x2="14.953405" y1="7.629155" x1="14.153523"  />
      <line  id="svg_103" y2="7.560594" x2="15.319065" y1="7.583448" x1="14.816282"  />
      <line  id="svg_104" y2="7.994816" x2="15.616164" y1="7.492033" x1="15.136235"  />
      <line  id="svg_105" y2="12.999789" x2="12.622321" y1="13.045497" x1="13.559325"  />
      <line  id="svg_106" y2="12.70269" x2="12.028123" y1="12.999789" x1="12.73659"  />
      <line  id="svg_107" y2="12.199908" x2="11.479633" y1="12.748398" x1="12.073831"  />
      <line  id="svg_108" y2="11.78854" x2="10.953997" y1="12.291323" x1="11.571048"  />
      <line  id="svg_111" y2="11.60571" x2="10.314091" y1="11.857101" x1="11.136827"  />
      <line  id="svg_112" y2="11.628564" x2="9.87987" y1="11.628564" x1="10.496921"  />
      <line  id="svg_114" y2="11.78854" x2="9.468502" y1="11.560002" x1="10.108408"  />
      <line  id="svg_115" y2="12.131346" x2="9.262818" y1="11.674271" x1="9.582771"  />
      <line  id="svg_116" y2="12.611275" x2="9.194257" y1="11.902809" x1="9.33138"  />
      <line  id="svg_117" y2="13.25118" x2="9.14855" y1="12.382738" x1="9.239965"  />
      <line  id="svg_118" y2="13.822524" x2="9.14855" y1="13.022643" x1="9.14855"  />
      <line  id="svg_119" y2="14.530991" x2="9.377087" y1="13.685402" x1="9.102842"  />
      <line  id="svg_120" y2="15.125189" x2="9.765601" y1="14.416722" x1="9.33138"  />
      <line  id="svg_121" y2="15.490849" x2="10.336945" y1="15.079481" x1="9.651332"  />
      <line  id="svg_122" y2="15.582264" x2="11.182534" y1="15.467995" x1="10.24553"  />
      <line  id="svg_123" y2="15.513703" x2="13.330788" y1="15.582264" x1="11.113973"  />
      <line  id="svg_124" y2="15.422288" x2="14.244938" y1="15.513703" x1="13.307934"  />
      <line  id="svg_125" y2="15.262311" x2="15.090527" y1="15.422288" x1="14.244938"  />
      <line  id="svg_127" y2="14.896651" x2="15.387626" y1="15.285165" x1="14.884843"  />
      <line  id="svg_129" y2="14.302453" x2="15.684725" y1="14.988066" x1="15.273357"  />
      <line  id="svg_130" y2="13.731109" x2="15.639017" y1="14.416722" x1="15.661871"  />
      <line  id="svg_131" y2="13.25118" x2="15.296211" y1="13.868232" x1="15.661871"  />
      <line  id="svg_132" y2="13.045497" x2="14.656306" y1="13.388303" x1="15.41048"  />
      <line  id="svg_133" y2="13.045497" x2="13.445056" y1="13.091204" x1="14.884843"  />
      <line  id="svg_137" y2="7.994816" x2="8.942866" y1="7.012104" x1="7.731616" />
      <line  id="svg_138" y2="8.177646" x2="9.559917" y1="7.903401" x1="8.851451" />
      <line  id="svg_139" y2="8.131938" x2="10.405506" y1="8.086231" x1="9.422795" />
      <line  id="svg_140" y2="7.857693" x2="10.97685" y1="8.131938" x1="10.24553" />
      <line  id="svg_141" y2="7.057812" x2="11.82244" y1="7.949108" x1="10.885435" />
      <line  id="svg_142" y2="5.52661" x2="12.439491" y1="7.17208" x1="11.708171" />
      <line  id="svg_143" y2="4.818143" x2="13.125104" y1="5.572317" x1="12.393784" />
      <line  id="svg_144" y2="4.589605" x2="13.924985" y1="4.886704" x1="12.987981" />
      <line  id="svg_145" y2="4.383922" x2="15.273357" y1="4.612459" x1="13.83357" />
      <line  id="svg_146" y2="4.109676" x2="15.95897" y1="4.383922" x1="15.090527" />
      <line  id="svg_147" y2="3.721163" x2="16.393192" y1="4.109676" x1="15.844701" />
      <line  id="svg_149" y2="3.21838" x2="16.644583" y1="3.881139" x1="16.301776" />
      <line  id="svg_150" y2="2.715597" x2="16.667437" y1="3.40121" x1="16.598875" />
      <line  id="svg_151" y2="2.235668" x2="16.553168" y1="2.921281" x1="16.69029" />
      <line  id="svg_152" y2="1.801447" x2="16.1418" y1="2.372791" x1="16.667437" />
      <line  id="svg_153" y2="1.572909" x2="15.59331" y1="1.984277" x1="16.370338" />
      <line  id="svg_154" y2="1.435787" x2="14.930551" y1="1.664324" x1="15.844701" />
      <line  id="svg_155" y2="1.435787" x2="14.107816" y1="1.435787" x1="15.090527" />
      <line  id="svg_156" y2="1.595763" x2="11.319657" y1="1.435787" x1="14.336353" />
      <line  id="svg_157" y2="1.755739" x2="10.382653" y1="1.595763" x1="11.639609" />
      <line  id="svg_158" y2="1.984277" x2="9.742747" y1="1.710032" x1="10.451214" />
      <line  id="svg_159" y2="2.304229" x2="9.102842" y1="1.938569" x1="9.765601" />
      <line  id="svg_161" y2="2.807012" x2="8.417229" y1="2.098546" x1="9.377087" />
      <line  id="svg_162" y2="3.378356" x2="7.960154" y1="2.647036" x1="8.531498" />
      <line  id="svg_163" y2="4.109676" x2="7.57164" y1="3.241234" x1="8.028715" />
      <line  id="svg_165" y2="4.909558" x2="7.320249" y1="3.926846" x1="7.640201" />
      <line  id="svg_166" y2="5.846562" x2="7.228834" y1="4.703874" x1="7.343103" />
      <line  id="svg_167" y2="6.600736" x2="7.411664" y1="5.663732" x1="7.160272" />
      <line  id="svg_168" y2="7.17208" x2="7.891593" y1="6.463614" x1="7.343103" />
    </g>
  </symbol>
</svg>
